<svg width="30" height="30" viewBox="0 0 30 30" fill="none" xmlns="http://www.w3.org/2000/svg">
<path d="M28.9664 11.4787C28.9133 11.2482 28.8152 11.0305 28.6779 10.8379C28.5405 10.6454 28.3666 10.4817 28.166 10.3564C27.9655 10.231 27.7422 10.1464 27.5089 10.1073C27.2756 10.0683 27.0369 10.0755 26.8064 10.1287C26.576 10.1819 26.3582 10.28 26.1657 10.4173C25.9731 10.5546 25.8095 10.7285 25.6841 10.9291C25.5587 11.1297 25.4741 11.353 25.435 11.5863C25.396 11.8196 25.4033 12.0582 25.4564 12.2887C26.1324 14.9987 25.746 17.8646 24.3764 20.2987C21.4064 25.4287 14.7464 27.2287 9.61644 24.2587C4.48644 21.3787 2.68644 14.7187 5.65644 9.58871C8.62644 4.45871 15.2864 2.65871 20.4164 5.62871C20.6174 5.7469 20.8396 5.82436 21.0705 5.85666C21.3013 5.88897 21.5363 5.87548 21.7619 5.81698C21.9876 5.75848 22.1995 5.65611 22.3856 5.51571C22.5716 5.37531 22.7283 5.19963 22.8464 4.99871C22.9646 4.79779 23.0421 4.57555 23.0744 4.3447C23.1067 4.11384 23.0932 3.87888 23.0347 3.65323C22.9762 3.42759 22.8738 3.21567 22.7334 3.02959C22.593 2.84351 22.4174 2.6869 22.2164 2.56871C15.2864 -1.48129 6.55644 0.858711 2.50644 7.78871C1.3148 9.83584 0.645272 12.1448 0.556921 14.5118C0.468569 16.8789 0.96411 19.2313 1.99983 21.3616C3.03555 23.4919 4.57961 25.3345 6.4958 26.727C8.412 28.1194 10.6414 29.0189 12.9874 29.3461C15.3334 29.6732 17.7239 29.418 19.948 28.6029C22.172 27.7879 24.1613 26.438 25.7403 24.6723C27.3193 22.9067 28.4396 20.7796 29.0022 18.4787C29.5648 16.1778 29.5525 13.7738 28.9664 11.4787ZM9.25644 13.4587C8.85066 13.1961 8.35719 13.1055 7.8846 13.2068C7.41201 13.3081 6.999 13.5929 6.73644 13.9987C6.47388 14.4045 6.38326 14.898 6.48453 15.3706C6.5858 15.8431 6.87066 16.2561 7.27644 16.5187L14.4764 21.0187C14.7736 21.2021 15.1173 21.2958 15.4664 21.2887C15.7448 21.2829 16.0184 21.2153 16.2675 21.0907C16.5165 20.9662 16.7347 20.7879 16.9064 20.5687L26.3564 8.41871C26.9864 7.60871 26.8064 6.52871 25.9964 5.89871C25.1864 5.26871 24.1064 5.44871 23.4764 6.25871L15.0164 17.0587L9.25644 13.4587Z" fill="#FDDC1F"/>
</svg>
