<svg width="133" height="48" viewBox="0 0 133 48" fill="none" xmlns="http://www.w3.org/2000/svg">
<path d="M5.08111 31.8778C5.08111 36.4943 5.08111 40.4659 4.82994 42.5705C4.62968 44.0301 4.37851 45.1503 3.37043 45.3539C2.91901 45.4558 2.31484 45.5576 1.56133 45.5576C0.957163 45.5576 0.756905 45.6934 0.756905 45.965C0.756905 46.3044 1.10651 46.4741 1.76159 46.4741C3.77434 46.4741 6.94452 46.3044 8.10194 46.3044C9.4087 46.3044 12.5789 46.4741 15.9018 46.4741C16.455 46.4741 16.8556 46.3044 16.8556 45.965C16.8556 45.6934 16.6044 45.5576 16.0511 45.5576C15.2976 45.5576 14.1911 45.4558 13.4851 45.3539C11.9747 45.1503 11.6726 44.0301 11.5233 42.6384C11.2721 40.4659 11.2721 36.4943 11.2721 31.8778V11.7485C11.2721 11.1714 11.4215 10.8659 11.6726 10.7641C12.1275 10.6283 12.881 10.5943 13.6379 10.5943C14.7953 10.5943 16.8556 10.8659 18.6681 12.5292C21.4852 15.0411 21.638 18.4356 21.638 20.0989C21.638 25.2246 17.7109 28.3815 14.8937 28.3815C13.8381 28.3815 13.4851 28.5512 13.4851 28.9585C13.4851 29.298 13.8381 29.3319 14.0893 29.3998C14.3405 29.4338 14.8937 29.4338 15.1449 29.4338C22.2897 29.4338 27.5235 24.4099 27.5235 17.2815C27.5235 14.5999 26.1149 12.3255 25.0084 11.2732C24.204 10.5265 21.9401 8.42188 15.6506 8.42188C13.3358 8.42188 10.4168 8.55766 8.35311 8.55766C6.94452 8.55766 3.77434 8.42188 1.10651 8.42188C0.352997 8.42188 0 8.52371 0 8.86316C0 9.20261 0.302084 9.30444 0.855337 9.30444C1.56133 9.30444 2.41667 9.37233 2.81718 9.47417C4.47694 9.81362 4.88085 10.6283 4.98268 12.3255C5.08111 13.9549 5.08111 15.3466 5.08111 23.0182V31.8778Z" fill="white"/>
<path d="M30.9839 35.9849C30.9839 39.4812 30.9839 42.4683 30.7938 44.0638C30.6411 45.15 30.451 45.9986 29.6907 46.1344C29.3513 46.2362 28.8964 46.3041 28.3262 46.3041C27.8714 46.3041 27.7187 46.406 27.7187 46.6096C27.7187 46.8812 27.9834 46.983 28.479 46.983C29.9962 46.983 32.3891 46.8812 33.1086 46.8812C33.6789 46.8812 36.4893 46.983 38.6887 46.983C39.1842 46.983 39.449 46.8812 39.449 46.6096C39.449 46.406 39.2963 46.3041 38.9942 46.3041C38.536 46.3041 37.7044 46.2362 37.1342 46.1344C35.9937 45.9986 35.7663 45.15 35.6509 44.0638C35.4642 42.4683 35.4642 39.4812 35.4642 35.9509V35.4078C35.4642 35.1702 35.5762 35.1023 35.7663 35.1023L39.0688 35.1702C39.3336 35.1702 39.5644 35.2041 39.7511 35.4418C40.2466 36.0188 41.9912 38.5986 43.5118 40.6693C45.6366 43.5885 47.0791 45.3876 48.7117 46.2702C49.6994 46.7794 50.6498 46.983 52.7746 46.983H56.3826C56.8374 46.983 57.1056 46.9151 57.1056 46.6096C57.1056 46.406 56.9494 46.3041 56.6474 46.3041C56.3453 46.3041 56.0025 46.2702 55.585 46.2023C55.0148 46.0665 53.4568 45.795 51.3321 43.5885C49.0919 41.2463 46.475 37.8858 43.0944 33.6087C46.9298 30.5197 48.1042 27.906 48.1042 25.1225C48.1042 22.5766 46.587 20.6418 45.5246 19.9289C43.4745 18.5032 40.9289 18.2656 38.536 18.2656C37.3616 18.2656 34.4765 18.4014 33.1833 18.4014C32.3891 18.4014 29.9962 18.2656 27.9834 18.2656C27.4132 18.2656 27.1484 18.3675 27.1484 18.6051C27.1484 18.8766 27.3759 18.9785 27.7933 18.9785C28.3262 18.9785 28.9711 19.0124 29.2732 19.0803C30.5291 19.3519 30.8311 19.9629 30.9058 21.2528C30.9839 22.4409 30.9839 23.5271 30.9839 29.2977V35.9849ZM35.4642 20.7436C35.4642 20.4381 35.5389 20.3023 35.8036 20.2005C36.1838 20.0987 36.8694 20.0647 37.8164 20.0647C40.0566 20.0647 43.6238 21.6262 43.6238 27.0234C43.6238 30.1124 42.5241 31.8775 41.3871 32.6922C40.7014 33.2014 40.2093 33.3372 38.6887 33.3372C37.7417 33.3372 36.6013 33.2353 35.8036 32.9638C35.5389 32.8619 35.4642 32.6922 35.4642 32.2849V20.7436Z" fill="white"/>
<path d="M66.7376 48.0011C75.145 48.0011 80.44 41.9928 80.44 34.4231C80.44 26.8194 75.3113 22.0332 67.0702 22.0332C57.1388 22.0332 53.3984 29.3653 53.3984 35.0002C53.3984 40.8726 57.2373 48.0011 66.7376 48.0011ZM68.1258 46.3378C61.7719 46.3378 57.967 40.8726 57.967 33.9818C57.967 25.7332 62.3014 23.6286 66.1097 23.6286C71.537 23.6286 75.8069 28.2112 75.8069 35.6451C75.8069 45.2176 70.4441 46.3378 68.1258 46.3378Z" fill="white"/>
<path d="M88.1546 33.7448C88.1546 33.5412 88.2225 33.4733 88.3922 33.4733C88.9624 33.4733 92.5229 33.4733 93.3613 33.5751C94.4033 33.7109 94.909 34.288 95.0754 34.7632C95.2111 35.1705 95.279 35.5779 95.279 35.8155C95.279 36.0531 95.3435 36.2907 95.5471 36.2907C95.8798 36.2907 95.8798 35.9513 95.8798 35.6458C95.8798 35.4082 95.9477 33.8467 96.0155 33.2017C96.1174 32.1494 96.2837 31.3008 96.2837 31.0971C96.2837 30.8935 96.2158 30.7916 96.0834 30.7916C95.8798 30.7916 95.8153 30.9274 95.6456 31.1311C95.3096 31.5724 94.8412 31.7082 94.203 31.7421C93.7313 31.776 93.2629 31.776 92.6892 31.776L88.3922 31.81C88.1885 31.81 88.1546 31.7082 88.1546 31.5045V23.1201C88.1546 22.7467 88.2564 22.6449 88.4567 22.6449L93.6328 22.7467C94.909 22.7806 95.6116 23.2898 95.8492 23.765C96.0495 24.2063 96.0495 24.7494 96.0495 25.021C96.0834 25.3944 96.1513 25.5641 96.3855 25.5641C96.6197 25.5641 96.6876 25.3605 96.7215 25.0889C96.7894 24.6816 96.8539 22.7128 96.8879 22.3733C96.9897 21.4907 97.156 21.0834 97.156 20.8458C97.156 20.71 97.0576 20.5742 96.9252 20.5742C96.7555 20.5742 96.5858 20.71 96.3855 20.7779C96.0495 20.8458 95.6456 20.8458 95.0075 20.8797C94.237 20.9137 87.4181 20.9137 86.1418 20.9137C85.6701 20.9137 84.8996 20.8797 84.0239 20.8458C83.1516 20.8458 82.1774 20.8118 81.3017 20.8118C80.7994 20.8118 80.5312 20.8797 80.5312 21.1513C80.5312 21.355 80.7654 21.4228 81.1015 21.4228C81.5733 21.4228 82.1435 21.4568 82.4116 21.5247C83.5215 21.7623 83.7897 22.3054 83.8576 23.4595C83.922 24.5118 83.922 25.4623 83.922 30.554V36.4944C83.922 39.7192 83.922 42.2311 83.7557 43.6228C83.62 44.6072 83.4536 45.354 82.7816 45.4898C82.4795 45.5577 82.0756 45.6256 81.5733 45.6256C81.2033 45.6256 81.0675 45.7274 81.0675 45.8971C81.0675 46.1687 81.3017 46.2366 81.7735 46.2366C83.0497 46.2366 85.1677 46.1347 86.04 46.1347C86.9123 46.1347 89.0303 46.2366 91.1449 46.2366C91.6506 46.2366 91.8848 46.1347 91.8848 45.8971C91.8848 45.7274 91.749 45.6256 91.3146 45.6256C90.8428 45.6256 90.1029 45.5577 89.6345 45.4898C88.6264 45.354 88.4227 44.6072 88.3243 43.6228C88.1546 42.2311 88.1546 39.7192 88.1546 36.4944V33.7448Z" fill="white"/>
<path d="M102.061 36.2559C102.061 39.7522 102.061 42.5696 101.881 44.0971C101.772 45.1494 101.555 45.7604 100.835 45.8962C100.51 45.9641 100.079 46.032 99.5389 46.032C99.1045 46.032 98.9619 46.1678 98.9619 46.3375C98.9619 46.5751 99.2131 46.7109 99.6815 46.7109C101.121 46.7109 103.395 46.5751 104.223 46.5751C105.194 46.5751 107.464 46.7109 109.844 46.7109C110.237 46.7109 110.526 46.5751 110.526 46.3375C110.526 46.1678 110.346 46.032 109.949 46.032C109.409 46.032 108.618 45.9641 108.113 45.8962C107.033 45.7604 106.779 45.1155 106.67 44.1311C106.528 42.5696 106.528 39.7522 106.528 36.2559V29.9082C106.528 24.443 106.528 23.4247 106.599 22.2706C106.67 21.0146 106.959 20.4036 107.933 20.1999C108.364 20.132 108.652 20.0981 109.012 20.0981C109.372 20.0981 109.589 20.0302 109.589 19.7586C109.589 19.521 109.301 19.4531 108.832 19.4531C107.464 19.4531 105.34 19.555 104.437 19.555C103.395 19.555 101.121 19.4531 99.7528 19.4531C99.1757 19.4531 98.8906 19.521 98.8906 19.7586C98.8906 20.0302 99.1045 20.0981 99.4642 20.0981C99.8987 20.0981 100.367 20.132 100.764 20.2339C101.555 20.4375 101.915 21.0485 101.986 22.2706C102.061 23.4247 102.061 24.443 102.061 29.9082V36.2559Z" fill="white"/>
<path d="M118.008 35.0331C118.008 38.5294 118.008 41.5166 117.818 43.112C117.706 44.2322 117.479 45.0469 116.718 45.2166C116.376 45.2845 115.921 45.3524 115.351 45.3524C114.896 45.3524 114.743 45.4881 114.743 45.6579C114.743 45.9294 115.011 46.0652 115.503 46.0652C117.021 46.0652 119.413 45.9294 120.286 45.9294C121.348 45.9294 123.741 46.0652 126.249 46.0652C126.667 46.0652 126.969 45.9294 126.969 45.6579C126.969 45.4881 126.779 45.3524 126.361 45.3524C125.791 45.3524 124.956 45.2845 124.427 45.2166C123.286 45.0469 123.059 44.2322 122.943 43.1459C122.753 41.5166 122.753 38.5294 122.753 35.0331V19.4524L127.539 19.5882C130.916 19.6561 131.941 20.7083 132.019 21.6927L132.057 22.134C132.094 22.6772 132.172 22.8808 132.474 22.8808C132.702 22.8808 132.776 22.6432 132.814 22.2698C132.814 21.2854 132.929 18.6717 132.929 17.857C132.929 17.3139 132.892 17.0762 132.627 17.0762C132.474 17.0762 132.172 17.1441 131.602 17.246C131.032 17.3478 130.197 17.4496 128.982 17.4496H113.945C112.693 17.4496 111.25 17.3817 110.151 17.246C109.2 17.1781 108.82 16.8047 108.518 16.8047C108.291 16.8047 108.175 17.0423 108.063 17.5175C107.985 17.823 107.266 21.2854 107.266 21.8964C107.266 22.3038 107.34 22.5074 107.608 22.5074C107.832 22.5074 107.948 22.3377 108.023 22.0322C108.101 21.7267 108.291 21.2854 108.671 20.7083C109.238 19.8937 110.151 19.69 112.35 19.6221L118.008 19.4524V35.0331Z" fill="white"/>
<path d="M34.9383 3.15983C34.9519 3.19377 34.9723 3.22772 34.9859 3.26166C38.543 2.61671 38.9231 13.3773 45.1107 13.0717C47.3204 13.0717 47.3407 13.0717 49.5469 13.0717C49.5469 8.69285 49.5469 4.3479 49.5469 0.00294743C48.2639 0.00294743 46.9775 0.00294743 45.6945 0.00294743C45.6945 3.2956 45.6945 6.58827 45.6945 9.88092C45.6742 9.84698 45.6504 9.77909 45.6267 9.7112C42.3648 10.2204 41.4654 -0.200722 36.7678 0.00294743C34.5446 0.00294743 33.3091 0.00294743 31.0859 0.00294743C31.0859 4.3479 31.0859 8.69285 31.0859 13.0717C32.3689 13.0717 33.6519 13.0717 34.9383 13.0717C34.9383 9.74514 34.9383 6.45248 34.9383 3.15983Z" fill="white"/>
<path d="M55.9172 13.5129H64.6572C66.1031 13.5129 67.135 13.1395 67.8749 12.5964C69.5856 11.3065 69.9216 9.54134 69.942 6.75786C69.9623 3.8386 69.2054 2.31108 67.8749 1.29273C67.1384 0.749612 66.1031 0.410156 64.6572 0.410156C62.4001 0.410156 58.1471 0.410156 51.8984 0.410156V13.5129H52.0138H55.9172ZM55.6999 10.39V3.56703H55.7508C60.7776 3.56703 63.5948 3.56703 64.2058 3.56703C64.6063 3.56703 64.8541 3.70281 65.0815 3.7707C65.9877 3.90648 66.2287 5.77345 66.2287 6.99547C66.2287 8.89639 65.8078 9.88079 65.0815 10.1863C64.871 10.2881 64.6063 10.39 64.2058 10.39H55.7508H55.6999Z" fill="white"/>
<path d="M81.0082 3.43126H87.8271L93.3189 13.445H98.5392L105.728 0.410156H101.193L95.9562 10.2202L90.7189 0.410156C84.2021 0.410156 72.5872 0.410156 66.0703 0.410156V3.43126H76.9215V13.5129H81.0082V3.43126Z" fill="white"/>
<path fill-rule="evenodd" clip-rule="evenodd" d="M50.5776 4.41602C51.9658 4.41602 53.0927 5.5362 53.0927 6.92794C53.0927 8.31968 51.9658 9.43987 50.5776 9.43987C49.1894 9.43987 48.0625 8.31968 48.0625 6.92794C48.0625 5.5362 49.1894 4.41602 50.5776 4.41602Z" fill="#D8261C"/>
<path fill-rule="evenodd" clip-rule="evenodd" d="M94.465 14.4295C88.7797 18.0276 78.6921 20.4377 67.1926 20.4377C55.4928 20.4377 45.2526 17.9598 39.625 14.2598C46.5186 16.7717 56.3685 18.3332 67.308 18.3332C77.9726 18.3332 87.6019 16.8396 94.465 14.4295Z" fill="#D8261C"/>
</svg>
