<svg width="32" height="28" viewBox="0 0 32 28" fill="none" xmlns="http://www.w3.org/2000/svg">
<path d="M25.1457 3.5C25.8404 3.5 26.5065 3.74583 26.9977 4.18342C27.4889 4.621 27.7648 5.21449 27.7648 5.83333V22.1667C27.7648 22.7855 27.4889 23.379 26.9977 23.8166C26.5065 24.2542 25.8404 24.5 25.1457 24.5H6.81241C6.11779 24.5 5.45163 24.2542 4.96046 23.8166C4.46929 23.379 4.19336 22.7855 4.19336 22.1667V5.83333C4.19336 5.21449 4.46929 4.621 4.96046 4.18342C5.45163 3.74583 6.11779 3.5 6.81241 3.5H25.1457ZM24.491 21.5833V15.4C24.491 14.3913 24.0412 13.4239 23.2406 12.7106C22.44 11.9974 21.3542 11.5967 20.2219 11.5967C19.1088 11.5967 17.8124 12.2033 17.1838 13.1133V11.8183H13.5303V21.5833H17.1838V15.8317C17.1838 14.9333 17.9957 14.1983 19.0041 14.1983C19.4903 14.1983 19.9566 14.3704 20.3004 14.6767C20.6443 14.983 20.8374 15.3985 20.8374 15.8317V21.5833H24.491ZM9.27431 9.98667C9.85779 9.98667 10.4174 9.78017 10.8299 9.4126C11.2425 9.04502 11.4743 8.54649 11.4743 8.02667C11.4743 6.94167 10.4922 6.055 9.27431 6.055C8.68736 6.055 8.12445 6.26273 7.70942 6.63249C7.29438 7.00225 7.06122 7.50375 7.06122 8.02667C7.06122 9.11167 8.05645 9.98667 9.27431 9.98667ZM11.0945 21.5833V11.8183H7.46717V21.5833H11.0945Z" fill="white"/>
</svg>
