<svg width="8" height="14" viewBox="0 0 8 14" fill="none" xmlns="http://www.w3.org/2000/svg">
<path d="M7.73942 6.42962C7.72982 6.4215 7.71702 6.41825 7.70742 6.41013L1.53604 0.73764C1.18883 0.420788 0.625617 0.420788 0.278407 0.73764C0.275207 0.74089 0.273607 0.74414 0.272007 0.74739C0.187934 0.817885 0.120032 0.906177 0.07305 1.00609C0.0260674 1.10601 0.00113661 1.21513 -5.32149e-07 1.32585L-3.61736e-08 12.6724C0.00179396 12.7852 0.0279443 12.8962 0.0766044 12.9975C0.125264 13.0989 0.195247 13.1882 0.281608 13.259L0.278408 13.2623C0.45311 13.4156 0.676313 13.5 0.907226 13.5C1.13814 13.5 1.36134 13.4156 1.53604 13.2623L7.73942 7.57679C7.82112 7.50601 7.88673 7.41808 7.93172 7.31905C7.9767 7.22002 8 7.11227 8 7.00321C8 6.89415 7.9767 6.78639 7.93172 6.68737C7.88673 6.58834 7.82112 6.5004 7.73942 6.42962Z" fill="white"/>
</svg>
