<svg width="48" height="48" viewBox="0 0 48 48" fill="none" xmlns="http://www.w3.org/2000/svg">
<g filter="url(#filter0_b_3705_2419)">
<rect width="48" height="48" rx="4" fill="white" fill-opacity="0.06"/>
</g>
<mask id="mask0_3705_2419" style="mask-type:luminance" maskUnits="userSpaceOnUse" x="8" y="8" width="32" height="33">
<path d="M8 8H40V40.3082H8V8Z" fill="white"/>
</mask>
<g mask="url(#mask0_3705_2419)">
<path fill-rule="evenodd" clip-rule="evenodd" d="M20.8444 25.3278L22.5782 28.3313L21.1774 29.1397C21.0498 29.2136 21.0062 29.3762 21.0798 29.5041L21.8885 30.9043L11.1421 37.1092L8.00195 31.67L20.38 24.5236L20.8444 25.3278ZM14.4281 28.5078C13.1539 29.2435 12.7165 30.8749 13.4522 32.1491C14.1879 33.4238 15.8198 33.861 17.094 33.1253C18.3682 32.3896 18.8056 30.7577 18.0699 29.4835C17.3342 28.2093 15.7023 27.7722 14.4281 28.5078ZM16.8714 32.6376C16.9658 32.5557 16.9921 32.4156 16.9273 32.3032L16.8353 32.1437C17.1403 31.8326 17.2149 31.3447 16.9864 30.9495C16.712 30.4744 16.1031 30.3112 15.6277 30.5857C15.4073 30.713 15.1247 30.6371 14.9971 30.4164C14.8698 30.1959 14.9455 29.9134 15.1662 29.7861C15.3869 29.6587 15.6694 29.7347 15.7968 29.9554C15.8703 30.0828 16.0335 30.1258 16.1609 30.0525C16.2882 29.9792 16.3321 29.816 16.2585 29.6887C16.03 29.293 15.5704 29.1138 15.1486 29.2224L15.0565 29.063C14.9918 28.9511 14.8575 28.9038 14.7392 28.9444C15.7518 28.3912 17.0282 28.7451 17.6082 29.75C18.1881 30.755 17.857 32.0373 16.8714 32.6376ZM14.6507 28.9958C14.5563 29.0777 14.53 29.2176 14.5951 29.3297L14.6868 29.4889C14.3818 29.8 14.3072 30.2879 14.5357 30.6831C14.8101 31.1587 15.4188 31.3214 15.8944 31.0477C16.1148 30.9196 16.3976 30.9955 16.525 31.2162C16.6523 31.4367 16.5766 31.7192 16.3559 31.8465C16.1352 31.9739 15.8527 31.8984 15.7253 31.678C15.6518 31.5507 15.4886 31.5068 15.3612 31.5801C15.2339 31.6539 15.1903 31.8174 15.2636 31.9444C15.4921 32.3398 15.9517 32.5191 16.3735 32.4105L16.4656 32.5696C16.5303 32.6823 16.6649 32.7296 16.7831 32.6882C15.7703 33.2419 14.4939 32.8875 13.9139 31.8826C13.3339 30.8784 13.6651 29.5956 14.6507 28.9958ZM12.3227 37.0432L22.3858 31.2328C22.4474 31.1975 22.4918 31.1395 22.5102 31.071L23.1997 28.4979C23.2181 28.4292 23.2085 28.3567 23.1732 28.2954L21.4394 25.2925L21.8917 25.0314L25.0319 30.4699L12.6539 37.6162L12.3227 37.0432ZM27.32 18.6352C27.4814 18.7879 27.6777 18.9311 27.9062 19.063C28.8663 19.6167 30.4142 19.9827 32.1603 19.9827C34.1783 19.9827 35.9308 19.4897 36.8265 18.7871C36.885 18.7786 36.9431 18.7698 37.0012 18.7607V19.7162C37.0012 20.1146 36.6665 20.4605 36.148 20.7599C35.2491 21.2775 33.7965 21.6074 32.1603 21.6074C30.5244 21.6074 29.0718 21.2775 28.1726 20.7599C27.6542 20.4605 27.32 20.1146 27.32 19.7162V18.6352ZM29.7799 15.9217V16.4795C29.7799 16.5614 29.7887 16.6435 29.8059 16.7248C29.5135 16.7933 29.2711 16.8974 29.1063 17.0194C28.9945 17.1017 28.9137 17.1946 28.8623 17.2917H28.1791C28.0319 17.2917 27.9126 17.411 27.9126 17.5584C27.9126 17.705 28.0319 17.8249 28.1791 17.8249H28.862C28.907 17.9102 28.9744 17.9915 29.0656 18.0654C29.3562 18.3021 29.9369 18.4792 30.6106 18.4792C30.9977 18.4792 31.3543 18.4228 31.6395 18.3299C32.5723 18.6852 33.8037 18.9038 35.1531 18.9038C35.2791 18.9038 35.4038 18.9019 35.5276 18.8979C34.6475 19.243 33.4618 19.4495 32.1603 19.4495C30.5244 19.4495 29.0718 19.1197 28.1726 18.6012C27.6542 18.3027 27.32 17.9562 27.32 17.5584C27.32 17.2799 27.4915 17.0247 27.7697 16.792C28.2133 16.4209 28.9182 16.1202 29.7799 15.9217ZM29.3275 17.5584C29.3275 17.5338 29.3479 17.5156 29.3685 17.4945C29.403 17.4592 29.4487 17.4279 29.5022 17.3971C29.6379 17.3211 29.8179 17.2617 30.0252 17.2224C30.2021 17.4824 30.4717 17.7256 30.8243 17.9396C30.7545 17.9442 30.6833 17.9463 30.6106 17.9463C30.1528 17.9463 29.7449 17.8588 29.4931 17.7136C29.4423 17.6844 29.399 17.6536 29.3661 17.6189C29.3468 17.5991 29.3275 17.5809 29.3275 17.5584ZM30.3131 15.3979C30.4744 15.5504 30.6705 15.6943 30.8992 15.8265C31.8591 16.3794 33.4073 16.7459 35.1531 16.7459C36.8998 16.7459 38.4471 16.3794 39.4075 15.8265C39.636 15.6943 39.8326 15.5504 39.9939 15.3979V16.4795C39.9939 16.8773 39.6593 17.2237 39.1416 17.5223C38.6512 17.8048 37.9966 18.0314 37.2384 18.1788C37.2237 18.1807 37.2098 18.1833 37.1956 18.1868C37.0338 18.2181 36.8679 18.2449 36.6972 18.2681C36.6852 18.2695 36.674 18.2708 36.6625 18.2727C36.1868 18.3366 35.6796 18.3706 35.1531 18.3706C33.839 18.3706 32.6432 18.1574 31.7574 17.8048C31.7478 17.8011 31.7379 17.797 31.7277 17.7936C31.5226 17.7104 31.3342 17.6197 31.1654 17.5223C30.8147 17.3203 30.5482 17.0967 30.4126 16.8492C30.4046 16.8241 30.3928 16.8013 30.3786 16.7799C30.3358 16.6833 30.3131 16.5828 30.3131 16.4795V15.5985C30.3131 15.5951 30.3131 15.5918 30.3131 15.5892V15.3979ZM39.9939 14.3211C39.9939 14.7195 39.6593 15.0654 39.1416 15.3645C38.2419 15.8824 36.7893 16.2128 35.1531 16.2128C33.5172 16.2128 32.0648 15.8824 31.1654 15.3645C30.6472 15.0654 30.3131 14.7195 30.3131 14.3211C30.3131 13.9225 30.6472 13.5766 31.1654 13.278C32.0648 12.7596 33.5172 12.4297 35.1531 12.4297C36.7893 12.4297 38.2419 12.7596 39.1416 13.278C39.6593 13.5766 39.9939 13.9225 39.9939 14.3211ZM31.8548 14.5876C31.8998 14.6729 31.9674 14.7542 32.0587 14.8289C32.3489 15.0654 32.93 15.2427 33.6039 15.2427C34.2775 15.2427 34.858 15.0654 35.1486 14.8289C35.3318 14.6796 35.4198 14.5009 35.4198 14.3211C35.4198 14.2976 35.4391 14.2805 35.4583 14.2604C35.491 14.2256 35.5343 14.1951 35.5857 14.1657C35.8377 14.0204 36.2454 13.9324 36.7031 13.9324C37.1611 13.9324 37.5688 14.0204 37.8208 14.1657C37.8714 14.1951 37.9147 14.2256 37.9482 14.2604C37.9674 14.2805 37.9862 14.2976 37.9862 14.3211C37.9862 14.3444 37.9674 14.3615 37.9482 14.3824C37.9147 14.4164 37.8714 14.4477 37.8208 14.4768C37.5688 14.6215 37.1611 14.7096 36.7031 14.7096C36.556 14.7096 36.4367 14.8289 36.4367 14.976C36.4367 15.1234 36.556 15.2427 36.7031 15.2427C37.377 15.2427 37.9573 15.0654 38.2478 14.8289C38.3393 14.7542 38.4065 14.6729 38.4519 14.5876H39.1349C39.2815 14.5876 39.4014 14.4683 39.4014 14.3211C39.4014 14.1737 39.2815 14.0544 39.1349 14.0544H38.4519C38.4065 13.9691 38.3393 13.8877 38.2478 13.8139C37.9573 13.5774 37.377 13.3992 36.7031 13.3992C36.0295 13.3992 35.4485 13.5774 35.1579 13.8139C34.9747 13.9632 34.8867 14.1411 34.8867 14.3211C34.8867 14.3444 34.8679 14.3615 34.8479 14.3824C34.8152 14.4164 34.7719 14.4477 34.7208 14.4768C34.4696 14.6215 34.0616 14.7096 33.6039 14.7096C33.1453 14.7096 32.7379 14.6215 32.4862 14.4768C32.4351 14.4477 32.3917 14.4164 32.3588 14.3824C32.3396 14.3615 32.3203 14.3444 32.3203 14.3211C32.3203 14.2976 32.3396 14.2805 32.3588 14.2604C32.3917 14.2256 32.4351 14.1951 32.4862 14.1657C32.7379 14.0204 33.1453 13.9324 33.6039 13.9324C33.7505 13.9324 33.8703 13.8131 33.8703 13.666C33.8703 13.5194 33.7505 13.3992 33.6039 13.3992C32.93 13.3992 32.3489 13.5774 32.0587 13.8139C31.9674 13.8877 31.8998 13.9691 31.8548 14.0544H31.1721C31.025 14.0544 30.9054 14.1737 30.9054 14.3211C30.9054 14.4683 31.025 14.5876 31.1721 14.5876H31.8548ZM23.4343 35.8623L25.1296 34.167V35.8709C25.1296 36.0183 25.2489 36.1376 25.396 36.1376C26.1472 36.1376 26.8821 36.0683 27.5951 35.9362C33.0726 34.918 37.2457 30.1673 37.3709 24.4263H39.9913C39.8612 31.6726 34.4407 37.6368 27.4316 38.6165C26.7665 38.709 26.0868 38.7572 25.396 38.7572C25.2489 38.7572 25.1296 38.877 25.1296 39.0236V40.3091L22.0584 37.2385L23.4343 35.8623ZM25.396 9.56215C25.5432 9.56215 25.6625 9.4423 25.6625 9.2957V8.01025L28.7336 11.0809L27.3578 12.457L25.6625 14.1523V12.4485C25.6625 12.3011 25.5432 12.1817 25.396 12.1817C24.6448 12.1817 23.9099 12.251 23.197 12.3837C17.7194 13.4014 13.5464 18.152 13.4209 23.8931H10.8008C10.9308 16.6475 16.3513 10.6825 23.3602 9.70287C24.0255 9.61031 24.7053 9.56215 25.396 9.56215Z" fill="white"/>
</g>
<defs>
<filter id="filter0_b_3705_2419" x="-10.8" y="-10.8" width="69.6" height="69.6" filterUnits="userSpaceOnUse" color-interpolation-filters="sRGB">
<feFlood flood-opacity="0" result="BackgroundImageFix"/>
<feGaussianBlur in="BackgroundImageFix" stdDeviation="5.4"/>
<feComposite in2="SourceAlpha" operator="in" result="effect1_backgroundBlur_3705_2419"/>
<feBlend mode="normal" in="SourceGraphic" in2="effect1_backgroundBlur_3705_2419" result="shape"/>
</filter>
</defs>
</svg>
