<svg width="23" height="23" viewBox="0 0 23 23" fill="none" xmlns="http://www.w3.org/2000/svg">
<path d="M16.2521 15.1181C16.5714 15.4374 16.5714 15.9342 16.2521 16.2535C16.0924 16.4132 15.8972 16.4842 15.6843 16.4842C15.4714 16.4842 15.2763 16.4132 15.1166 16.2535L11.8698 13.0068L8.62305 16.2535C8.46337 16.4132 8.26821 16.4842 8.05531 16.4842C7.8424 16.4842 7.64724 16.4132 7.48756 16.2535C7.16821 15.9342 7.16821 15.4374 7.48756 15.1181L10.7343 11.8713L7.48756 8.62451C7.16821 8.30516 7.16821 7.80838 7.48756 7.48903C7.80692 7.16967 8.30369 7.16967 8.62305 7.48903L11.8698 10.7358L15.1166 7.48903C15.436 7.16967 15.9327 7.16967 16.2521 7.48903C16.5714 7.80838 16.5714 8.30516 16.2521 8.62451L13.0053 11.8713L16.2521 15.1181Z" fill="white"/>
<circle cx="11.5" cy="11.5" r="11.129" stroke="#FFFEFE" stroke-width="0.741935"/>
</svg>
