<svg width="16" height="10" viewBox="0 0 16 10" fill="none" xmlns="http://www.w3.org/2000/svg">
<path d="M7.11507 0.317428C7.10532 0.329128 7.10143 0.344726 7.09167 0.356425L0.284624 7.87713C-0.0956038 8.30026 -0.0956039 8.98662 0.284624 9.40974C0.288524 9.41364 0.292422 9.41559 0.296322 9.41754C0.380919 9.52 0.486869 9.60274 0.606768 9.66C0.726666 9.71725 0.857621 9.74764 0.990481 9.74902L14.6065 9.74902C14.7418 9.74684 14.875 9.71497 14.9966 9.65567C15.1183 9.59637 15.2254 9.51109 15.3104 9.40584L15.3143 9.40974C15.4984 9.19684 15.5996 8.92484 15.5996 8.64344C15.5996 8.36204 15.4984 8.09003 15.3143 7.87713L8.49169 0.317428C8.40676 0.217865 8.30123 0.137914 8.1824 0.0830901C8.06356 0.0282672 7.93425 -0.000124648 7.80338 -0.000124659C7.67251 -0.000124671 7.5432 0.0282672 7.42437 0.0830901C7.30554 0.137914 7.20001 0.217865 7.11507 0.317428Z" fill="#003DEE"/>
</svg>
