<svg width="12" height="7" viewBox="0 0 12 7" fill="none" xmlns="http://www.w3.org/2000/svg">
<path d="M6.18658 6.77199C6.19369 6.76359 6.19653 6.75239 6.20364 6.74399L11.1671 1.34404C11.4443 1.04023 11.4443 0.547415 11.1671 0.243607C11.1642 0.240807 11.1614 0.239407 11.1585 0.238007C11.0968 0.164442 11.0196 0.105029 10.9322 0.0639192C10.8447 0.0228095 10.7493 0.000995 10.6524 0L0.724111 0C0.625457 0.00156975 0.528356 0.0244513 0.439668 0.0670288C0.35098 0.109606 0.272868 0.170841 0.21085 0.246407L0.208006 0.243607C0.0738334 0.396471 0 0.591774 0 0.793823C0 0.995871 0.0738334 1.19117 0.208006 1.34404L5.1828 6.77199C5.24474 6.84348 5.32168 6.90089 5.40833 6.94025C5.49498 6.97961 5.58927 7 5.68469 7C5.78012 7 5.87441 6.97961 5.96105 6.94025C6.0477 6.90089 6.12465 6.84348 6.18658 6.77199Z" fill="#838383"/>
</svg>
