<svg width="350" height="260" viewBox="0 0 350 260" fill="none" xmlns="http://www.w3.org/2000/svg">
<g filter="url(#filter0_b_3236_2260)">
<rect width="350" height="260" rx="13.1343" fill="#292D35"/>
<rect x="0.656716" y="0.656716" width="348.687" height="258.687" rx="12.4776" stroke="white" stroke-opacity="0.2" stroke-width="1.31343"/>
</g>
<g clip-path="url(#clip0_3236_2260)">
<g filter="url(#filter1_f_3236_2260)">
<ellipse cx="286.058" cy="118.799" rx="104.626" ry="62.0597" transform="rotate(91.1011 286.058 118.799)" fill="url(#paint0_linear_3236_2260)"/>
</g>
</g>
<path d="M32.396 204.42C34.398 204.42 35.448 205.638 35.63 207.29H34.342C34.23 206.072 33.516 205.372 32.298 205.372C31.276 205.372 30.464 205.848 30.464 206.856C30.464 207.906 31.066 208.354 32.536 208.69C34.664 209.18 35.728 210.048 35.728 211.686C35.728 213.38 34.272 214.472 32.41 214.472C30.282 214.472 28.938 213.394 28.728 211.532H30.016C30.296 212.806 31.178 213.52 32.438 213.52C33.544 213.52 34.44 212.918 34.44 211.91C34.44 210.734 33.768 210.202 32.074 209.81C30.366 209.418 29.176 208.732 29.176 207.136C29.176 205.47 30.618 204.42 32.396 204.42ZM43.5955 210.356C43.5955 210.468 43.5955 210.664 43.5675 210.93H38.1915C38.3035 212.89 39.2275 213.548 40.3195 213.548C41.2855 213.548 42.0695 212.946 42.2375 211.882H43.4975C43.2035 213.674 41.7895 214.472 40.2635 214.472C38.3315 214.472 36.8895 213.212 36.8895 210.594C36.8895 208.186 38.3875 206.66 40.4175 206.66C42.4615 206.66 43.5955 208.186 43.5955 210.356ZM40.3895 207.584C39.2135 207.584 38.3455 208.424 38.2055 210.006H42.3775C42.2655 208.466 41.6075 207.584 40.3895 207.584ZM49.725 214.276L49.599 213.212L49.193 214.01C48.689 214.36 48.045 214.472 47.331 214.472C45.987 214.472 44.937 213.73 44.937 212.358C44.937 210.678 46.197 209.81 49.109 209.81H49.585V209.614C49.585 209.292 49.585 208.998 49.557 208.718C49.501 208.032 49.109 207.584 48.115 207.584C47.107 207.584 46.603 208.13 46.519 209.152H45.259C45.371 207.57 46.477 206.66 48.115 206.66C49.879 206.66 50.621 207.402 50.747 208.62C50.775 208.914 50.789 209.278 50.789 209.6V212.386C50.789 212.946 50.817 213.45 50.929 214.276H49.725ZM47.737 213.548C48.857 213.548 49.585 212.806 49.585 211.462V210.706C47.541 210.552 46.253 210.986 46.253 212.26C46.253 213.156 46.827 213.548 47.737 213.548ZM63.0565 208.466C63.1125 208.844 63.1265 209.138 63.1265 209.74V214.276H61.9225V210.3C61.9225 209.642 61.9085 209.236 61.8665 208.858C61.7545 208.018 61.2225 207.612 60.3825 207.612C59.4445 207.612 58.7585 208.354 58.7585 210.608V214.276H57.5545V210.3C57.5545 209.642 57.5405 209.236 57.4985 208.858C57.3865 208.018 56.8545 207.612 56.0145 207.612C55.0765 207.612 54.3905 208.354 54.3905 210.608V214.276H53.1865V206.856H54.3905V207.934L54.8665 207.094C55.2445 206.786 55.7765 206.66 56.4345 206.66C57.5685 206.66 58.2965 207.234 58.5765 208.046L59.2345 207.094C59.6125 206.786 60.1445 206.66 60.8025 206.66C62.1325 206.66 62.8885 207.444 63.0565 208.466ZM66.5911 203.986V212.148C66.5911 212.372 66.5911 212.61 66.6051 212.848C66.6331 213.324 66.8571 213.478 67.5151 213.408V214.276C67.2491 214.318 66.9411 214.332 66.6611 214.332C65.9611 214.332 65.4431 214.108 65.4011 213.17C65.3871 212.918 65.3871 212.596 65.3871 212.19V203.986H66.5911ZM75.2721 210.356C75.2721 210.468 75.2721 210.664 75.2441 210.93H69.8681C69.9801 212.89 70.9041 213.548 71.9961 213.548C72.9621 213.548 73.7461 212.946 73.9141 211.882H75.1741C74.8801 213.674 73.4661 214.472 71.9401 214.472C70.0081 214.472 68.5661 213.212 68.5661 210.594C68.5661 208.186 70.0641 206.66 72.0941 206.66C74.1381 206.66 75.2721 208.186 75.2721 210.356ZM72.0661 207.584C70.8901 207.584 70.0221 208.424 69.8821 210.006H74.0541C73.9421 208.466 73.2841 207.584 72.0661 207.584ZM79.3017 206.66C80.9677 206.66 81.8777 207.612 82.0317 208.97H80.7717C80.6037 208.102 80.0717 207.584 79.2037 207.584C78.3637 207.584 77.9717 208.046 77.9717 208.69C77.9717 209.432 78.5877 209.726 79.5957 209.992C81.3037 210.44 82.1157 211.112 82.1157 212.372C82.1157 213.772 80.9257 214.472 79.3577 214.472C77.8317 214.472 76.6697 213.772 76.4457 212.092H77.7057C77.9017 213.17 78.5877 213.548 79.4417 213.548C80.2397 213.548 80.8837 213.184 80.8837 212.47C80.8837 211.756 80.3797 211.378 79.1337 211.042C77.8037 210.678 76.7397 210.132 76.7397 208.83C76.7397 207.472 77.7757 206.66 79.3017 206.66ZM86.0075 206.66C87.6735 206.66 88.5835 207.612 88.7375 208.97H87.4775C87.3095 208.102 86.7775 207.584 85.9095 207.584C85.0695 207.584 84.6775 208.046 84.6775 208.69C84.6775 209.432 85.2935 209.726 86.3015 209.992C88.0095 210.44 88.8215 211.112 88.8215 212.372C88.8215 213.772 87.6315 214.472 86.0635 214.472C84.5375 214.472 83.3755 213.772 83.1515 212.092H84.4115C84.6075 213.17 85.2935 213.548 86.1475 213.548C86.9455 213.548 87.5895 213.184 87.5895 212.47C87.5895 211.756 87.0855 211.378 85.8395 211.042C84.5095 210.678 83.4455 210.132 83.4455 208.83C83.4455 207.472 84.4815 206.66 86.0075 206.66ZM96.9247 206.66C99.4447 206.66 100.607 208.466 100.607 210.566C100.607 212.652 99.4447 214.472 96.9247 214.472C94.4047 214.472 93.2427 212.652 93.2427 210.566C93.2427 208.466 94.4047 206.66 96.9247 206.66ZM96.9247 213.548C98.4227 213.548 99.2907 212.302 99.2907 210.566C99.2907 208.816 98.4227 207.584 96.9247 207.584C95.4267 207.584 94.5587 208.816 94.5587 210.566C94.5587 212.302 95.4267 213.548 96.9247 213.548ZM108.586 208.83C108.614 209.208 108.614 209.502 108.614 210.104V214.276H107.41V210.188C107.41 209.81 107.41 209.502 107.382 209.124C107.312 208.256 106.836 207.612 105.688 207.612C104.526 207.612 103.546 208.48 103.546 211.014V214.276H102.342V206.856H103.546V208.13L104.008 207.276C104.638 206.786 105.184 206.66 105.94 206.66C107.564 206.66 108.474 207.528 108.586 208.83ZM117.011 210.356C117.011 210.468 117.011 210.664 116.983 210.93H111.607C111.719 212.89 112.643 213.548 113.735 213.548C114.701 213.548 115.485 212.946 115.653 211.882H116.913C116.619 213.674 115.205 214.472 113.679 214.472C111.747 214.472 110.305 213.212 110.305 210.594C110.305 208.186 111.803 206.66 113.833 206.66C115.877 206.66 117.011 208.186 117.011 210.356ZM113.805 207.584C112.629 207.584 111.761 208.424 111.621 210.006H115.793C115.681 208.466 115.023 207.584 113.805 207.584ZM125.056 206.66C126.834 206.66 127.968 207.724 128.192 209.348H126.932C126.666 208.158 126.022 207.584 125.028 207.584C123.866 207.584 122.886 208.494 122.886 210.496C122.886 212.652 123.838 213.548 124.944 213.548C125.924 213.548 126.61 212.988 126.862 211.91H128.122C127.758 213.632 126.526 214.472 124.874 214.472C122.998 214.472 121.57 213.296 121.57 210.58C121.57 208.074 123.194 206.66 125.056 206.66ZM131.024 203.986V212.148C131.024 212.372 131.024 212.61 131.038 212.848C131.066 213.324 131.29 213.478 131.948 213.408V214.276C131.682 214.318 131.374 214.332 131.094 214.332C130.394 214.332 129.876 214.108 129.834 213.17C129.82 212.918 129.82 212.596 129.82 212.19V203.986H131.024ZM134.217 204.42C134.651 204.42 134.987 204.756 134.987 205.19C134.987 205.624 134.651 205.96 134.217 205.96C133.783 205.96 133.447 205.624 133.447 205.19C133.447 204.756 133.783 204.42 134.217 204.42ZM134.819 214.276H133.615V206.856H134.819V214.276ZM140.101 206.66C141.879 206.66 143.013 207.724 143.237 209.348H141.977C141.711 208.158 141.067 207.584 140.073 207.584C138.911 207.584 137.931 208.494 137.931 210.496C137.931 212.652 138.883 213.548 139.989 213.548C140.969 213.548 141.655 212.988 141.907 211.91H143.167C142.803 213.632 141.571 214.472 139.919 214.472C138.043 214.472 136.615 213.296 136.615 210.58C136.615 208.074 138.239 206.66 140.101 206.66ZM149.527 214.276L146.825 211.14L146.125 211.91V214.276H144.921V203.986H146.125V210.594L149.583 206.856H151.123L147.665 210.356L151.165 214.276H149.527ZM157.259 207.836V212.106C157.259 212.358 157.259 212.484 157.273 212.68C157.329 213.394 157.623 213.548 158.561 213.436V214.318C158.211 214.374 157.875 214.388 157.539 214.388C156.615 214.388 156.139 214.01 156.069 213.086C156.055 212.89 156.055 212.582 156.055 212.162V207.836H155.061V206.912H156.055V205.19H157.259V206.912H158.645V207.836H157.259ZM163.398 206.688C163.594 206.688 163.762 206.716 163.902 206.786V207.696C162.642 207.612 161.69 208.354 161.69 210.048V214.276H160.486V206.856H161.69V208.018L162.362 207.024C162.67 206.814 163.048 206.688 163.398 206.688ZM169.643 214.276L169.517 213.212L169.111 214.01C168.607 214.36 167.963 214.472 167.249 214.472C165.905 214.472 164.855 213.73 164.855 212.358C164.855 210.678 166.115 209.81 169.027 209.81H169.503V209.614C169.503 209.292 169.503 208.998 169.475 208.718C169.419 208.032 169.027 207.584 168.033 207.584C167.025 207.584 166.521 208.13 166.437 209.152H165.177C165.289 207.57 166.395 206.66 168.033 206.66C169.797 206.66 170.539 207.402 170.665 208.62C170.693 208.914 170.707 209.278 170.707 209.6V212.386C170.707 212.946 170.735 213.45 170.847 214.276H169.643ZM167.655 213.548C168.775 213.548 169.503 212.806 169.503 211.462V210.706C167.459 210.552 166.171 210.986 166.171 212.26C166.171 213.156 166.745 213.548 167.655 213.548ZM179.586 203.986V214.276H178.382V213.086L177.822 213.884C177.402 214.234 176.618 214.472 175.862 214.472C173.692 214.472 172.488 212.848 172.488 210.678C172.488 207.934 174.196 206.66 176.114 206.66C176.73 206.66 177.514 206.842 177.892 207.15L178.382 207.878V203.986H179.586ZM176.044 213.548C177.276 213.548 178.382 212.764 178.382 210.636V210.23C178.382 208.312 177.178 207.584 176.114 207.584C174.812 207.584 173.804 208.592 173.804 210.538C173.804 212.218 174.56 213.548 176.044 213.548ZM188.087 210.356C188.087 210.468 188.087 210.664 188.059 210.93H182.683C182.795 212.89 183.719 213.548 184.811 213.548C185.777 213.548 186.561 212.946 186.729 211.882H187.989C187.695 213.674 186.281 214.472 184.755 214.472C182.823 214.472 181.381 213.212 181.381 210.594C181.381 208.186 182.879 206.66 184.909 206.66C186.953 206.66 188.087 208.186 188.087 210.356ZM184.881 207.584C183.705 207.584 182.837 208.424 182.697 210.006H186.869C186.757 208.466 186.099 207.584 184.881 207.584ZM199.353 210.356C199.353 210.468 199.353 210.664 199.325 210.93H193.949C194.061 212.89 194.985 213.548 196.077 213.548C197.043 213.548 197.827 212.946 197.995 211.882H199.255C198.961 213.674 197.547 214.472 196.021 214.472C194.089 214.472 192.647 213.212 192.647 210.594C192.647 208.186 194.145 206.66 196.175 206.66C198.219 206.66 199.353 208.186 199.353 210.356ZM196.147 207.584C194.971 207.584 194.103 208.424 193.963 210.006H198.135C198.023 208.466 197.365 207.584 196.147 207.584ZM203.947 210.496L206.579 214.276H205.179L203.233 211.294L201.301 214.276H199.915L202.575 210.524L200.013 206.856H201.441L203.303 209.726L205.165 206.856H206.551L203.947 210.496ZM213.995 210.356C213.995 210.468 213.995 210.664 213.967 210.93H208.591C208.703 212.89 209.627 213.548 210.719 213.548C211.685 213.548 212.469 212.946 212.637 211.882H213.897C213.603 213.674 212.189 214.472 210.663 214.472C208.731 214.472 207.289 213.212 207.289 210.594C207.289 208.186 208.787 206.66 210.817 206.66C212.861 206.66 213.995 208.186 213.995 210.356ZM210.789 207.584C209.613 207.584 208.745 208.424 208.605 210.006H212.777C212.665 208.466 212.007 207.584 210.789 207.584ZM218.738 206.66C220.516 206.66 221.65 207.724 221.874 209.348H220.614C220.348 208.158 219.704 207.584 218.71 207.584C217.548 207.584 216.568 208.494 216.568 210.496C216.568 212.652 217.52 213.548 218.626 213.548C219.606 213.548 220.292 212.988 220.544 211.91H221.804C221.44 213.632 220.208 214.472 218.556 214.472C216.68 214.472 215.252 213.296 215.252 210.58C215.252 208.074 216.876 206.66 218.738 206.66ZM229.718 206.856V214.276H228.514V213.016L228.052 213.884C227.422 214.346 226.876 214.472 226.12 214.472C224.58 214.472 223.684 213.604 223.516 212.582C223.46 212.204 223.446 211.91 223.446 211.308V206.856H224.65V211.084C224.65 211.322 224.664 211.728 224.706 212.106C224.818 212.946 225.42 213.52 226.428 213.52C227.59 213.52 228.514 212.652 228.514 210.118V206.856H229.718ZM233.565 207.836V212.106C233.565 212.358 233.565 212.484 233.579 212.68C233.635 213.394 233.929 213.548 234.867 213.436V214.318C234.517 214.374 234.181 214.388 233.845 214.388C232.921 214.388 232.445 214.01 232.375 213.086C232.361 212.89 232.361 212.582 232.361 212.162V207.836H231.367V206.912H232.361V205.19H233.565V206.912H234.951V207.836H233.565ZM237.394 204.42C237.828 204.42 238.164 204.756 238.164 205.19C238.164 205.624 237.828 205.96 237.394 205.96C236.96 205.96 236.624 205.624 236.624 205.19C236.624 204.756 236.96 204.42 237.394 204.42ZM237.996 214.276H236.792V206.856H237.996V214.276ZM243.474 206.66C245.994 206.66 247.156 208.466 247.156 210.566C247.156 212.652 245.994 214.472 243.474 214.472C240.954 214.472 239.792 212.652 239.792 210.566C239.792 208.466 240.954 206.66 243.474 206.66ZM243.474 213.548C244.972 213.548 245.84 212.302 245.84 210.566C245.84 208.816 244.972 207.584 243.474 207.584C241.976 207.584 241.108 208.816 241.108 210.566C241.108 212.302 241.976 213.548 243.474 213.548ZM255.135 208.83C255.163 209.208 255.163 209.502 255.163 210.104V214.276H253.959V210.188C253.959 209.81 253.959 209.502 253.931 209.124C253.861 208.256 253.385 207.612 252.237 207.612C251.075 207.612 250.095 208.48 250.095 211.014V214.276H248.891V206.856H250.095V208.13L250.557 207.276C251.187 206.786 251.733 206.66 252.489 206.66C254.113 206.66 255.023 207.528 255.135 208.83ZM262.214 207.836V212.106C262.214 212.358 262.214 212.484 262.228 212.68C262.284 213.394 262.578 213.548 263.516 213.436V214.318C263.166 214.374 262.83 214.388 262.494 214.388C261.57 214.388 261.094 214.01 261.024 213.086C261.01 212.89 261.01 212.582 261.01 212.162V207.836H260.016V206.912H261.01V205.19H262.214V206.912H263.6V207.836H262.214ZM271.684 208.83C271.712 209.208 271.712 209.502 271.712 210.104V214.276H270.508V210.188C270.508 209.81 270.508 209.502 270.48 209.124C270.41 208.256 269.934 207.584 268.786 207.612C267.624 207.64 266.644 208.48 266.644 211.014V214.276H265.44V203.916H266.644V208.13L267.106 207.276C267.736 206.786 268.282 206.66 269.038 206.66C270.662 206.66 271.572 207.528 271.684 208.83ZM276.931 206.688C277.127 206.688 277.295 206.716 277.435 206.786V207.696C276.175 207.612 275.223 208.354 275.223 210.048V214.276H274.019V206.856H275.223V208.018L275.895 207.024C276.203 206.814 276.581 206.688 276.931 206.688ZM281.822 206.66C284.342 206.66 285.504 208.466 285.504 210.566C285.504 212.652 284.342 214.472 281.822 214.472C279.302 214.472 278.14 212.652 278.14 210.566C278.14 208.466 279.302 206.66 281.822 206.66ZM281.822 213.548C283.32 213.548 284.188 212.302 284.188 210.566C284.188 208.816 283.32 207.584 281.822 207.584C280.324 207.584 279.456 208.816 279.456 210.566C279.456 212.302 280.324 213.548 281.822 213.548ZM293.399 206.856V214.276H292.195V213.016L291.733 213.884C291.103 214.346 290.557 214.472 289.801 214.472C288.261 214.472 287.365 213.604 287.197 212.582C287.141 212.204 287.127 211.91 287.127 211.308V206.856H288.331V211.084C288.331 211.322 288.345 211.728 288.387 212.106C288.499 212.946 289.101 213.52 290.109 213.52C291.271 213.52 292.195 212.652 292.195 210.118V206.856H293.399ZM302.286 206.856V212.456C302.286 212.918 302.286 213.492 302.272 213.898C302.202 216.068 300.886 217.216 298.744 217.216C296.63 217.216 295.58 216.334 295.426 214.766L295.412 214.626H296.63L296.644 214.752C296.742 215.662 297.47 216.292 298.744 216.292C300.214 216.292 301.012 215.452 301.068 214.024C301.082 213.674 301.082 213.436 301.082 213.212V213.086L300.522 213.884C300.102 214.234 299.318 214.472 298.562 214.472C296.392 214.472 295.188 212.848 295.188 210.678C295.188 207.934 296.896 206.66 298.814 206.66C299.43 206.66 300.214 206.842 300.592 207.15L301.082 207.878V206.856H302.286ZM298.744 213.548C299.976 213.548 301.082 212.764 301.082 210.636V210.23C301.082 208.312 299.878 207.584 298.814 207.584C297.512 207.584 296.504 208.592 296.504 210.538C296.504 212.218 297.26 213.548 298.744 213.548ZM310.942 208.83C310.97 209.208 310.97 209.502 310.97 210.104V214.276H309.766V210.188C309.766 209.81 309.766 209.502 309.738 209.124C309.668 208.256 309.192 207.584 308.044 207.612C306.882 207.64 305.902 208.48 305.902 211.014V214.276H304.698V203.916H305.902V208.13L306.364 207.276C306.994 206.786 307.54 206.66 308.296 206.66C309.92 206.66 310.83 207.528 310.942 208.83ZM320.834 214.276L320.708 213.212L320.302 214.01C319.798 214.36 319.154 214.472 318.44 214.472C317.096 214.472 316.046 213.73 316.046 212.358C316.046 210.678 317.306 209.81 320.218 209.81H320.694V209.614C320.694 209.292 320.694 208.998 320.666 208.718C320.61 208.032 320.218 207.584 319.224 207.584C318.216 207.584 317.712 208.13 317.628 209.152H316.368C316.48 207.57 317.586 206.66 319.224 206.66C320.988 206.66 321.73 207.402 321.856 208.62C321.884 208.914 321.898 209.278 321.898 209.6V212.386C321.898 212.946 321.926 213.45 322.038 214.276H320.834ZM318.846 213.548C319.966 213.548 320.694 212.806 320.694 211.462V210.706C318.65 210.552 317.362 210.986 317.362 212.26C317.362 213.156 317.936 213.548 318.846 213.548ZM31.192 224.66C32.858 224.66 33.768 225.612 33.922 226.97H32.662C32.494 226.102 31.962 225.584 31.094 225.584C30.254 225.584 29.862 226.046 29.862 226.69C29.862 227.432 30.478 227.726 31.486 227.992C33.194 228.44 34.006 229.112 34.006 230.372C34.006 231.772 32.816 232.472 31.248 232.472C29.722 232.472 28.56 231.772 28.336 230.092H29.596C29.792 231.17 30.478 231.548 31.332 231.548C32.13 231.548 32.774 231.184 32.774 230.47C32.774 229.756 32.27 229.378 31.024 229.042C29.694 228.678 28.63 228.132 28.63 226.83C28.63 225.472 29.666 224.66 31.192 224.66ZM36.3438 222.42C36.7778 222.42 37.1138 222.756 37.1138 223.19C37.1138 223.624 36.7778 223.96 36.3438 223.96C35.9098 223.96 35.5738 223.624 35.5738 223.19C35.5738 222.756 35.9098 222.42 36.3438 222.42ZM36.9458 232.276H35.7418V224.856H36.9458V232.276ZM45.6017 226.83C45.6297 227.208 45.6297 227.502 45.6297 228.104V232.276H44.4257V228.188C44.4257 227.81 44.4257 227.502 44.3977 227.124C44.3277 226.256 43.8517 225.612 42.7037 225.612C41.5417 225.612 40.5617 226.48 40.5617 229.014V232.276H39.3577V224.856H40.5617V226.13L41.0237 225.276C41.6537 224.786 42.1997 224.66 42.9557 224.66C44.5797 224.66 45.4897 225.528 45.6017 226.83ZM54.4185 224.856V230.456C54.4185 230.918 54.4185 231.492 54.4045 231.898C54.3345 234.068 53.0185 235.216 50.8765 235.216C48.7625 235.216 47.7125 234.334 47.5585 232.766L47.5445 232.626H48.7625L48.7765 232.752C48.8745 233.662 49.6025 234.292 50.8765 234.292C52.3465 234.292 53.1445 233.452 53.2005 232.024C53.2145 231.674 53.2145 231.436 53.2145 231.212V231.086L52.6545 231.884C52.2345 232.234 51.4505 232.472 50.6945 232.472C48.5245 232.472 47.3205 230.848 47.3205 228.678C47.3205 225.934 49.0285 224.66 50.9465 224.66C51.5625 224.66 52.3465 224.842 52.7245 225.15L53.2145 225.878V224.856H54.4185ZM50.8765 231.548C52.1085 231.548 53.2145 230.764 53.2145 228.636V228.23C53.2145 226.312 52.0105 225.584 50.9465 225.584C49.6445 225.584 48.6365 226.592 48.6365 228.538C48.6365 230.218 49.3925 231.548 50.8765 231.548ZM57.9778 221.986V230.148C57.9778 230.372 57.9778 230.61 57.9918 230.848C58.0198 231.324 58.2438 231.478 58.9018 231.408V232.276C58.6358 232.318 58.3278 232.332 58.0478 232.332C57.3478 232.332 56.8298 232.108 56.7878 231.17C56.7738 230.918 56.7738 230.596 56.7738 230.19V221.986H57.9778ZM66.6588 228.356C66.6588 228.468 66.6588 228.664 66.6308 228.93H61.2548C61.3668 230.89 62.2908 231.548 63.3828 231.548C64.3488 231.548 65.1328 230.946 65.3008 229.882H66.5608C66.2668 231.674 64.8528 232.472 63.3268 232.472C61.3948 232.472 59.9528 231.212 59.9528 228.594C59.9528 226.186 61.4508 224.66 63.4808 224.66C65.5248 224.66 66.6588 226.186 66.6588 228.356ZM63.4528 225.584C62.2768 225.584 61.4088 226.424 61.2688 228.006H65.4408C65.3288 226.466 64.6708 225.584 63.4528 225.584ZM75.5579 224.66C77.7279 224.66 78.9319 226.284 78.9319 228.454C78.9319 231.198 77.2239 232.472 75.3059 232.472C74.6899 232.472 73.9059 232.29 73.5279 231.982L73.0379 231.254V235.02H71.8339V224.856H73.0379V226.046L73.5979 225.248C74.0179 224.898 74.8019 224.66 75.5579 224.66ZM75.3059 231.548C76.6079 231.548 77.6159 230.54 77.6159 228.594C77.6159 226.914 76.8599 225.584 75.3759 225.584C74.1439 225.584 73.0379 226.368 73.0379 228.496V228.902C73.0379 230.82 74.2419 231.548 75.3059 231.548ZM81.8205 221.986V230.148C81.8205 230.372 81.8205 230.61 81.8345 230.848C81.8625 231.324 82.0865 231.478 82.7445 231.408V232.276C82.4785 232.318 82.1705 232.332 81.8905 232.332C81.1905 232.332 80.6725 232.108 80.6305 231.17C80.6165 230.918 80.6165 230.596 80.6165 230.19V221.986H81.8205ZM88.9136 232.276L88.7876 231.212L88.3816 232.01C87.8776 232.36 87.2336 232.472 86.5196 232.472C85.1756 232.472 84.1256 231.73 84.1256 230.358C84.1256 228.678 85.3856 227.81 88.2976 227.81H88.7736V227.614C88.7736 227.292 88.7736 226.998 88.7456 226.718C88.6896 226.032 88.2976 225.584 87.3036 225.584C86.2956 225.584 85.7916 226.13 85.7076 227.152H84.4476C84.5596 225.57 85.6656 224.66 87.3036 224.66C89.0676 224.66 89.8096 225.402 89.9356 226.62C89.9636 226.914 89.9776 227.278 89.9776 227.6V230.386C89.9776 230.946 90.0056 231.45 90.1176 232.276H88.9136ZM86.9256 231.548C88.0456 231.548 88.7736 230.806 88.7736 229.462V228.706C86.7296 228.552 85.4416 228.986 85.4416 230.26C85.4416 231.156 86.0156 231.548 86.9256 231.548ZM93.8171 225.836V230.106C93.8171 230.358 93.8171 230.484 93.8311 230.68C93.8871 231.394 94.1811 231.548 95.1191 231.436V232.318C94.7691 232.374 94.4331 232.388 94.0971 232.388C93.1731 232.388 92.6971 232.01 92.6271 231.086C92.6131 230.89 92.6131 230.582 92.6131 230.162V225.836H91.6191V224.912H92.6131V223.19H93.8171V224.912H95.2031V225.836H93.8171ZM98.3457 223.428C98.3177 223.624 98.3037 223.974 98.3037 224.184V224.912H99.8297V225.836H98.3037V232.276H97.0997V225.836H96.3017V224.912H97.0997V224.296C97.0997 224.016 97.1137 223.652 97.1417 223.4C97.2677 222.322 97.9957 221.72 99.1017 221.72C99.4097 221.72 99.7037 221.748 99.9557 221.79V222.784C99.0457 222.616 98.4437 222.826 98.3457 223.428ZM104.45 224.66C106.97 224.66 108.132 226.466 108.132 228.566C108.132 230.652 106.97 232.472 104.45 232.472C101.93 232.472 100.768 230.652 100.768 228.566C100.768 226.466 101.93 224.66 104.45 224.66ZM104.45 231.548C105.948 231.548 106.816 230.302 106.816 228.566C106.816 226.816 105.948 225.584 104.45 225.584C102.952 225.584 102.084 226.816 102.084 228.566C102.084 230.302 102.952 231.548 104.45 231.548ZM112.779 224.688C112.975 224.688 113.143 224.716 113.283 224.786V225.696C112.023 225.612 111.071 226.354 111.071 228.048V232.276H109.867V224.856H111.071V226.018L111.743 225.024C112.051 224.814 112.429 224.688 112.779 224.688ZM124.638 226.466C124.694 226.844 124.708 227.138 124.708 227.74V232.276H123.504V228.3C123.504 227.642 123.49 227.236 123.448 226.858C123.336 226.018 122.804 225.612 121.964 225.612C121.026 225.612 120.34 226.354 120.34 228.608V232.276H119.136V228.3C119.136 227.642 119.122 227.236 119.08 226.858C118.968 226.018 118.436 225.612 117.596 225.612C116.658 225.612 115.972 226.354 115.972 228.608V232.276H114.768V224.856H115.972V225.934L116.448 225.094C116.826 224.786 117.358 224.66 118.016 224.66C119.15 224.66 119.878 225.234 120.158 226.046L120.816 225.094C121.194 224.786 121.726 224.66 122.384 224.66C123.714 224.66 124.47 225.444 124.638 226.466Z" fill="white"/>
<path d="M37.209 178.436V180.47H31.971V183.692H35.985V185.69H31.971V191H29.451V178.436H37.209ZM38.7079 185.978C38.7079 184.97 38.9059 184.076 39.3019 183.296C39.7099 182.516 40.2559 181.916 40.9399 181.496C41.6359 181.076 42.4099 180.866 43.2619 180.866C44.0059 180.866 44.6539 181.016 45.2059 181.316C45.7699 181.616 46.2199 181.994 46.5559 182.45V181.028H49.0939V191H46.5559V189.542C46.2319 190.01 45.7819 190.4 45.2059 190.712C44.6419 191.012 43.9879 191.162 43.2439 191.162C42.4039 191.162 41.6359 190.946 40.9399 190.514C40.2559 190.082 39.7099 189.476 39.3019 188.696C38.9059 187.904 38.7079 186.998 38.7079 185.978ZM46.5559 186.014C46.5559 185.402 46.4359 184.88 46.1959 184.448C45.9559 184.004 45.6319 183.668 45.2239 183.44C44.8159 183.2 44.3779 183.08 43.9099 183.08C43.4419 183.08 43.0099 183.194 42.6139 183.422C42.2179 183.65 41.8939 183.986 41.6419 184.43C41.4019 184.862 41.2819 185.378 41.2819 185.978C41.2819 186.578 41.4019 187.106 41.6419 187.562C41.8939 188.006 42.2179 188.348 42.6139 188.588C43.0219 188.828 43.4539 188.948 43.9099 188.948C44.3779 188.948 44.8159 188.834 45.2239 188.606C45.6319 188.366 45.9559 188.03 46.1959 187.598C46.4359 187.154 46.5559 186.626 46.5559 186.014ZM55.7311 191.162C54.9151 191.162 54.1831 191.018 53.5351 190.73C52.8871 190.43 52.3711 190.028 51.9871 189.524C51.6151 189.02 51.4111 188.462 51.3751 187.85H53.9131C53.9611 188.234 54.1471 188.552 54.4711 188.804C54.8071 189.056 55.2211 189.182 55.7131 189.182C56.1931 189.182 56.5651 189.086 56.8291 188.894C57.1051 188.702 57.2431 188.456 57.2431 188.156C57.2431 187.832 57.0751 187.592 56.7391 187.436C56.4151 187.268 55.8931 187.088 55.1731 186.896C54.4291 186.716 53.8171 186.53 53.3371 186.338C52.8691 186.146 52.4611 185.852 52.1131 185.456C51.7771 185.06 51.6091 184.526 51.6091 183.854C51.6091 183.302 51.7651 182.798 52.0771 182.342C52.4011 181.886 52.8571 181.526 53.4451 181.262C54.0451 180.998 54.7471 180.866 55.5511 180.866C56.7391 180.866 57.6871 181.166 58.3951 181.766C59.1031 182.354 59.4931 183.152 59.5651 184.16H57.1531C57.1171 183.764 56.9491 183.452 56.6491 183.224C56.3611 182.984 55.9711 182.864 55.4791 182.864C55.0231 182.864 54.6691 182.948 54.4171 183.116C54.1771 183.284 54.0571 183.518 54.0571 183.818C54.0571 184.154 54.2251 184.412 54.5611 184.592C54.8971 184.76 55.4191 184.934 56.1271 185.114C56.8471 185.294 57.4411 185.48 57.9091 185.672C58.3771 185.864 58.7791 186.164 59.1151 186.572C59.4631 186.968 59.6431 187.496 59.6551 188.156C59.6551 188.732 59.4931 189.248 59.1691 189.704C58.8571 190.16 58.4011 190.52 57.8011 190.784C57.2131 191.036 56.5231 191.162 55.7311 191.162ZM65.0177 183.098V187.922C65.0177 188.258 65.0957 188.504 65.2517 188.66C65.4197 188.804 65.6957 188.876 66.0797 188.876H67.2497V191H65.6657C63.5417 191 62.4797 189.968 62.4797 187.904V183.098H61.2917V181.028H62.4797V178.562H65.0177V181.028H67.2497V183.098H65.0177Z" fill="white"/>
<circle cx="19.6713" cy="184.567" r="1.97015" fill="white"/>
<path d="M33.572 52.396C35.812 52.676 37.394 54.174 37.394 57.058C37.394 59.9 35.742 61.664 33.502 61.944C33.012 62 32.788 62 32.27 62H29.4V52.34H32.34C32.858 52.34 33.082 52.34 33.572 52.396ZM33.376 60.95C35.014 60.684 36.078 59.34 36.078 57.058C36.078 54.916 35.084 53.656 33.446 53.39C33.138 53.334 32.774 53.32 32.27 53.32H30.604V61.02H32.2C32.704 61.02 33.068 61.006 33.376 60.95ZM43.4978 62L43.3718 60.936L42.9658 61.734C42.4618 62.084 41.8178 62.196 41.1038 62.196C39.7598 62.196 38.7098 61.454 38.7098 60.082C38.7098 58.402 39.9698 57.534 42.8818 57.534H43.3578V57.338C43.3578 57.016 43.3578 56.722 43.3298 56.442C43.2738 55.756 42.8818 55.308 41.8878 55.308C40.8798 55.308 40.3758 55.854 40.2918 56.876H39.0318C39.1438 55.294 40.2498 54.384 41.8878 54.384C43.6518 54.384 44.3938 55.126 44.5198 56.344C44.5478 56.638 44.5618 57.002 44.5618 57.324V60.11C44.5618 60.67 44.5898 61.174 44.7018 62H43.4978ZM41.5098 61.272C42.6298 61.272 43.3578 60.53 43.3578 59.186V58.43C41.3138 58.276 40.0258 58.71 40.0258 59.984C40.0258 60.88 40.5998 61.272 41.5098 61.272ZM49.1153 54.384C50.7813 54.384 51.6913 55.336 51.8453 56.694H50.5853C50.4173 55.826 49.8853 55.308 49.0173 55.308C48.1773 55.308 47.7853 55.77 47.7853 56.414C47.7853 57.156 48.4013 57.45 49.4093 57.716C51.1173 58.164 51.9293 58.836 51.9293 60.096C51.9293 61.496 50.7393 62.196 49.1713 62.196C47.6453 62.196 46.4833 61.496 46.2593 59.816H47.5193C47.7153 60.894 48.4013 61.272 49.2553 61.272C50.0533 61.272 50.6973 60.908 50.6973 60.194C50.6973 59.48 50.1933 59.102 48.9473 58.766C47.6173 58.402 46.5533 57.856 46.5533 56.554C46.5533 55.196 47.5893 54.384 49.1153 54.384ZM59.9091 56.554C59.9371 56.932 59.9371 57.226 59.9371 57.828V62H58.7331V57.912C58.7331 57.534 58.7331 57.226 58.7051 56.848C58.6351 55.98 58.1591 55.308 57.0111 55.336C55.8491 55.364 54.8691 56.204 54.8691 58.738V62H53.6651V51.64H54.8691V55.854L55.3311 55C55.9611 54.51 56.5071 54.384 57.2631 54.384C58.8871 54.384 59.7971 55.252 59.9091 56.554ZM65.9679 54.384C68.1379 54.384 69.3419 56.008 69.3419 58.178C69.3419 60.922 67.6339 62.196 65.7159 62.196C65.0999 62.196 64.3159 62.014 63.9379 61.706L63.4479 60.978V62H62.2439V51.71H63.4479V55.77L64.0079 54.972C64.4279 54.622 65.2119 54.384 65.9679 54.384ZM65.7159 61.272C67.0179 61.272 68.0259 60.264 68.0259 58.318C68.0259 56.638 67.2699 55.308 65.7859 55.308C64.5539 55.308 63.4479 56.092 63.4479 58.22V58.626C63.4479 60.544 64.6519 61.272 65.7159 61.272ZM74.1485 54.384C76.6685 54.384 77.8305 56.19 77.8305 58.29C77.8305 60.376 76.6685 62.196 74.1485 62.196C71.6285 62.196 70.4665 60.376 70.4665 58.29C70.4665 56.19 71.6285 54.384 74.1485 54.384ZM74.1485 61.272C75.6465 61.272 76.5145 60.026 76.5145 58.29C76.5145 56.54 75.6465 55.308 74.1485 55.308C72.6505 55.308 71.7825 56.54 71.7825 58.29C71.7825 60.026 72.6505 61.272 74.1485 61.272ZM83.8216 62L83.6956 60.936L83.2896 61.734C82.7856 62.084 82.1416 62.196 81.4276 62.196C80.0836 62.196 79.0336 61.454 79.0336 60.082C79.0336 58.402 80.2936 57.534 83.2056 57.534H83.6816V57.338C83.6816 57.016 83.6816 56.722 83.6536 56.442C83.5976 55.756 83.2056 55.308 82.2116 55.308C81.2036 55.308 80.6996 55.854 80.6156 56.876H79.3556C79.4676 55.294 80.5736 54.384 82.2116 54.384C83.9756 54.384 84.7176 55.126 84.8436 56.344C84.8716 56.638 84.8856 57.002 84.8856 57.324V60.11C84.8856 60.67 84.9136 61.174 85.0256 62H83.8216ZM81.8336 61.272C82.9536 61.272 83.6816 60.53 83.6816 59.186V58.43C81.6376 58.276 80.3496 58.71 80.3496 59.984C80.3496 60.88 80.9236 61.272 81.8336 61.272ZM90.1951 54.412C90.3911 54.412 90.5591 54.44 90.6991 54.51V55.42C89.4391 55.336 88.4871 56.078 88.4871 57.772V62H87.2831V54.58H88.4871V55.742L89.1591 54.748C89.4671 54.538 89.8451 54.412 90.1951 54.412ZM98.5021 51.71V62H97.2981V60.81L96.7381 61.608C96.3181 61.958 95.5341 62.196 94.7781 62.196C92.6081 62.196 91.4041 60.572 91.4041 58.402C91.4041 55.658 93.1121 54.384 95.0301 54.384C95.6461 54.384 96.4301 54.566 96.8081 54.874L97.2981 55.602V51.71H98.5021ZM94.9601 61.272C96.1921 61.272 97.2981 60.488 97.2981 58.36V57.954C97.2981 56.036 96.0941 55.308 95.0301 55.308C93.7281 55.308 92.7201 56.316 92.7201 58.262C92.7201 59.942 93.4761 61.272 94.9601 61.272ZM103.069 54.384C104.735 54.384 105.645 55.336 105.799 56.694H104.539C104.371 55.826 103.839 55.308 102.971 55.308C102.131 55.308 101.739 55.77 101.739 56.414C101.739 57.156 102.355 57.45 103.363 57.716C105.071 58.164 105.883 58.836 105.883 60.096C105.883 61.496 104.693 62.196 103.125 62.196C101.599 62.196 100.437 61.496 100.213 59.816H101.473C101.669 60.894 102.355 61.272 103.209 61.272C104.007 61.272 104.651 60.908 104.651 60.194C104.651 59.48 104.147 59.102 102.901 58.766C101.571 58.402 100.507 57.856 100.507 56.554C100.507 55.196 101.543 54.384 103.069 54.384ZM117.165 56.554C117.193 56.932 117.193 57.226 117.193 57.828V62H115.989V57.912C115.989 57.534 115.989 57.226 115.961 56.848C115.891 55.98 115.415 55.308 114.267 55.336C113.105 55.364 112.125 56.204 112.125 58.738V62H110.921V51.64H112.125V55.854L112.587 55C113.217 54.51 113.763 54.384 114.519 54.384C116.143 54.384 117.053 55.252 117.165 56.554ZM120.102 52.144C120.536 52.144 120.872 52.48 120.872 52.914C120.872 53.348 120.536 53.684 120.102 53.684C119.668 53.684 119.332 53.348 119.332 52.914C119.332 52.48 119.668 52.144 120.102 52.144ZM120.704 62H119.5V54.58H120.704V62ZM129.597 54.58V60.18C129.597 60.642 129.597 61.216 129.583 61.622C129.513 63.792 128.197 64.94 126.055 64.94C123.941 64.94 122.891 64.058 122.737 62.49L122.723 62.35H123.941L123.955 62.476C124.053 63.386 124.781 64.016 126.055 64.016C127.525 64.016 128.323 63.176 128.379 61.748C128.393 61.398 128.393 61.16 128.393 60.936V60.81L127.833 61.608C127.413 61.958 126.629 62.196 125.873 62.196C123.703 62.196 122.499 60.572 122.499 58.402C122.499 55.658 124.207 54.384 126.125 54.384C126.741 54.384 127.525 54.566 127.903 54.874L128.393 55.602V54.58H129.597ZM126.055 61.272C127.287 61.272 128.393 60.488 128.393 58.36V57.954C128.393 56.036 127.189 55.308 126.125 55.308C124.823 55.308 123.815 56.316 123.815 58.262C123.815 59.942 124.571 61.272 126.055 61.272ZM138.253 56.554C138.281 56.932 138.281 57.226 138.281 57.828V62H137.077V57.912C137.077 57.534 137.077 57.226 137.049 56.848C136.979 55.98 136.503 55.308 135.355 55.336C134.193 55.364 133.213 56.204 133.213 58.738V62H132.009V51.64H133.213V55.854L133.675 55C134.305 54.51 134.851 54.384 135.607 54.384C137.231 54.384 138.141 55.252 138.253 56.554ZM141.736 51.71V59.872C141.736 60.096 141.736 60.334 141.75 60.572C141.778 61.048 142.002 61.202 142.66 61.132V62C142.394 62.042 142.086 62.056 141.806 62.056C141.106 62.056 140.588 61.832 140.546 60.894C140.532 60.642 140.532 60.32 140.532 59.914V51.71H141.736ZM144.929 52.144C145.363 52.144 145.699 52.48 145.699 52.914C145.699 53.348 145.363 53.684 144.929 53.684C144.495 53.684 144.159 53.348 144.159 52.914C144.159 52.48 144.495 52.144 144.929 52.144ZM145.531 62H144.327V54.58H145.531V62ZM154.424 54.58V60.18C154.424 60.642 154.424 61.216 154.41 61.622C154.34 63.792 153.024 64.94 150.882 64.94C148.768 64.94 147.718 64.058 147.564 62.49L147.55 62.35H148.768L148.782 62.476C148.88 63.386 149.608 64.016 150.882 64.016C152.352 64.016 153.15 63.176 153.206 61.748C153.22 61.398 153.22 61.16 153.22 60.936V60.81L152.66 61.608C152.24 61.958 151.456 62.196 150.7 62.196C148.53 62.196 147.326 60.572 147.326 58.402C147.326 55.658 149.034 54.384 150.952 54.384C151.568 54.384 152.352 54.566 152.73 54.874L153.22 55.602V54.58H154.424ZM150.882 61.272C152.114 61.272 153.22 60.488 153.22 58.36V57.954C153.22 56.036 152.016 55.308 150.952 55.308C149.65 55.308 148.642 56.316 148.642 58.262C148.642 59.942 149.398 61.272 150.882 61.272ZM163.08 56.554C163.108 56.932 163.108 57.226 163.108 57.828V62H161.904V57.912C161.904 57.534 161.904 57.226 161.876 56.848C161.806 55.98 161.33 55.308 160.182 55.336C159.02 55.364 158.04 56.204 158.04 58.738V62H156.836V51.64H158.04V55.854L158.502 55C159.132 54.51 159.678 54.384 160.434 54.384C162.058 54.384 162.968 55.252 163.08 56.554ZM166.857 55.56V59.83C166.857 60.082 166.857 60.208 166.871 60.404C166.927 61.118 167.221 61.272 168.159 61.16V62.042C167.809 62.098 167.473 62.112 167.137 62.112C166.213 62.112 165.737 61.734 165.667 60.81C165.653 60.614 165.653 60.306 165.653 59.886V55.56H164.659V54.636H165.653V52.914H166.857V54.636H168.243V55.56H166.857ZM170.685 52.144C171.119 52.144 171.455 52.48 171.455 52.914C171.455 53.348 171.119 53.684 170.685 53.684C170.251 53.684 169.915 53.348 169.915 52.914C169.915 52.48 170.251 52.144 170.685 52.144ZM171.287 62H170.083V54.58H171.287V62ZM179.943 56.554C179.971 56.932 179.971 57.226 179.971 57.828V62H178.767V57.912C178.767 57.534 178.767 57.226 178.739 56.848C178.669 55.98 178.193 55.336 177.045 55.336C175.883 55.336 174.903 56.204 174.903 58.738V62H173.699V54.58H174.903V55.854L175.365 55C175.995 54.51 176.541 54.384 177.297 54.384C178.921 54.384 179.831 55.252 179.943 56.554ZM188.76 54.58V60.18C188.76 60.642 188.76 61.216 188.746 61.622C188.676 63.792 187.36 64.94 185.218 64.94C183.104 64.94 182.054 64.058 181.9 62.49L181.886 62.35H183.104L183.118 62.476C183.216 63.386 183.944 64.016 185.218 64.016C186.688 64.016 187.486 63.176 187.542 61.748C187.556 61.398 187.556 61.16 187.556 60.936V60.81L186.996 61.608C186.576 61.958 185.792 62.196 185.036 62.196C182.866 62.196 181.662 60.572 181.662 58.402C181.662 55.658 183.37 54.384 185.288 54.384C185.904 54.384 186.688 54.566 187.066 54.874L187.556 55.602V54.58H188.76ZM185.218 61.272C186.45 61.272 187.556 60.488 187.556 58.36V57.954C187.556 56.036 186.352 55.308 185.288 55.308C183.986 55.308 182.978 56.316 182.978 58.262C182.978 59.942 183.734 61.272 185.218 61.272ZM198.197 54.384C200.367 54.384 201.571 56.008 201.571 58.178C201.571 60.922 199.863 62.196 197.945 62.196C197.329 62.196 196.545 62.014 196.167 61.706L195.677 60.978V64.744H194.473V54.58H195.677V55.77L196.237 54.972C196.657 54.622 197.441 54.384 198.197 54.384ZM197.945 61.272C199.247 61.272 200.255 60.264 200.255 58.318C200.255 56.638 199.499 55.308 198.015 55.308C196.783 55.308 195.677 56.092 195.677 58.22V58.626C195.677 60.544 196.881 61.272 197.945 61.272ZM206.223 54.412C206.419 54.412 206.587 54.44 206.727 54.51V55.42C205.467 55.336 204.515 56.078 204.515 57.772V62H203.311V54.58H204.515V55.742L205.187 54.748C205.495 54.538 205.873 54.412 206.223 54.412ZM214.138 58.08C214.138 58.192 214.138 58.388 214.11 58.654H208.734C208.846 60.614 209.77 61.272 210.862 61.272C211.828 61.272 212.612 60.67 212.78 59.606H214.04C213.746 61.398 212.332 62.196 210.806 62.196C208.874 62.196 207.432 60.936 207.432 58.318C207.432 55.91 208.93 54.384 210.96 54.384C213.004 54.384 214.138 55.91 214.138 58.08ZM210.932 55.308C209.756 55.308 208.888 56.148 208.748 57.73H212.92C212.808 56.19 212.15 55.308 210.932 55.308ZM218.882 54.384C220.66 54.384 221.794 55.448 222.018 57.072H220.758C220.492 55.882 219.848 55.308 218.854 55.308C217.692 55.308 216.712 56.218 216.712 58.22C216.712 60.376 217.664 61.272 218.77 61.272C219.75 61.272 220.436 60.712 220.688 59.634H221.948C221.584 61.356 220.352 62.196 218.7 62.196C216.824 62.196 215.396 61.02 215.396 58.304C215.396 55.798 217.02 54.384 218.882 54.384ZM224.304 52.144C224.738 52.144 225.074 52.48 225.074 52.914C225.074 53.348 224.738 53.684 224.304 53.684C223.87 53.684 223.534 53.348 223.534 52.914C223.534 52.48 223.87 52.144 224.304 52.144ZM224.906 62H223.702V54.58H224.906V62ZM229.474 54.384C231.14 54.384 232.05 55.336 232.204 56.694H230.944C230.776 55.826 230.244 55.308 229.376 55.308C228.536 55.308 228.144 55.77 228.144 56.414C228.144 57.156 228.76 57.45 229.768 57.716C231.476 58.164 232.288 58.836 232.288 60.096C232.288 61.496 231.098 62.196 229.53 62.196C228.004 62.196 226.842 61.496 226.618 59.816H227.878C228.074 60.894 228.76 61.272 229.614 61.272C230.412 61.272 231.056 60.908 231.056 60.194C231.056 59.48 230.552 59.102 229.306 58.766C227.976 58.402 226.912 57.856 226.912 56.554C226.912 55.196 227.948 54.384 229.474 54.384ZM240.114 58.08C240.114 58.192 240.114 58.388 240.086 58.654H234.71C234.822 60.614 235.746 61.272 236.838 61.272C237.804 61.272 238.588 60.67 238.756 59.606H240.016C239.722 61.398 238.308 62.196 236.782 62.196C234.85 62.196 233.408 60.936 233.408 58.318C233.408 55.91 234.906 54.384 236.936 54.384C238.98 54.384 240.114 55.91 240.114 58.08ZM236.908 55.308C235.732 55.308 234.864 56.148 234.724 57.73H238.896C238.784 56.19 238.126 55.308 236.908 55.308ZM251.379 58.08C251.379 58.192 251.379 58.388 251.351 58.654H245.975C246.087 60.614 247.011 61.272 248.103 61.272C249.069 61.272 249.853 60.67 250.021 59.606H251.281C250.987 61.398 249.573 62.196 248.047 62.196C246.115 62.196 244.673 60.936 244.673 58.318C244.673 55.91 246.171 54.384 248.201 54.384C250.245 54.384 251.379 55.91 251.379 58.08ZM248.173 55.308C246.997 55.308 246.129 56.148 245.989 57.73H250.161C250.049 56.19 249.391 55.308 248.173 55.308ZM259.497 56.554C259.525 56.932 259.525 57.226 259.525 57.828V62H258.321V57.912C258.321 57.534 258.321 57.226 258.293 56.848C258.223 55.98 257.747 55.336 256.599 55.336C255.437 55.336 254.457 56.204 254.457 58.738V62H253.253V54.58H254.457V55.854L254.919 55C255.549 54.51 256.095 54.384 256.851 54.384C258.475 54.384 259.385 55.252 259.497 56.554ZM263.273 55.56V59.83C263.273 60.082 263.273 60.208 263.287 60.404C263.343 61.118 263.637 61.272 264.575 61.16V62.042C264.225 62.098 263.889 62.112 263.553 62.112C262.629 62.112 262.153 61.734 262.083 60.81C262.069 60.614 262.069 60.306 262.069 59.886V55.56H261.075V54.636H262.069V52.914H263.273V54.636H264.659V55.56H263.273ZM269.412 54.412C269.608 54.412 269.776 54.44 269.916 54.51V55.42C268.656 55.336 267.704 56.078 267.704 57.772V62H266.5V54.58H267.704V55.742L268.376 54.748C268.684 54.538 269.062 54.412 269.412 54.412ZM277.463 54.58L274.411 62.63C273.809 64.198 273.011 64.94 271.807 64.94C271.541 64.94 271.373 64.94 271.191 64.912V63.932C271.373 63.946 271.499 63.946 271.625 63.946C272.367 63.946 272.857 63.624 273.235 62.644L273.333 62.378L270.379 54.58H271.737L273.949 61.104L276.147 54.58H277.463ZM279.783 60.74L278.523 63.68H277.389L278.481 60.6H279.783V60.74ZM291.607 58.08C291.607 58.192 291.607 58.388 291.579 58.654H286.203C286.315 60.614 287.239 61.272 288.331 61.272C289.297 61.272 290.081 60.67 290.249 59.606H291.509C291.215 61.398 289.801 62.196 288.275 62.196C286.343 62.196 284.901 60.936 284.901 58.318C284.901 55.91 286.399 54.384 288.429 54.384C290.473 54.384 291.607 55.91 291.607 58.08ZM288.401 55.308C287.225 55.308 286.357 56.148 286.217 57.73H290.389C290.277 56.19 289.619 55.308 288.401 55.308ZM296.201 58.22L298.833 62H297.433L295.487 59.018L293.555 62H292.169L294.829 58.248L292.267 54.58H293.695L295.557 57.45L297.419 54.58H298.805L296.201 58.22ZM300.925 52.144C301.359 52.144 301.695 52.48 301.695 52.914C301.695 53.348 301.359 53.684 300.925 53.684C300.491 53.684 300.155 53.348 300.155 52.914C300.155 52.48 300.491 52.144 300.925 52.144ZM301.527 62H300.323V54.58H301.527V62ZM305.381 55.56V59.83C305.381 60.082 305.381 60.208 305.395 60.404C305.451 61.118 305.745 61.272 306.683 61.16V62.042C306.333 62.098 305.997 62.112 305.661 62.112C304.737 62.112 304.261 61.734 304.191 60.81C304.177 60.614 304.177 60.306 304.177 59.886V55.56H303.183V54.636H304.177V52.914H305.381V54.636H306.767V55.56H305.381ZM309.531 60.74L308.271 63.68H307.137L308.229 60.6H309.531V60.74ZM322.937 56.61V57.59H321.593V61.902C320.795 62.084 319.885 62.196 318.947 62.196C316.693 62.196 315.125 61.622 315.125 59.578C315.125 58.416 315.965 57.366 317.337 57.072C316.273 56.82 315.517 56.05 315.517 54.916C315.517 53.264 316.931 52.144 318.933 52.144C319.619 52.144 320.081 52.186 320.613 52.284V53.25C320.039 53.138 319.577 53.096 318.891 53.096C317.617 53.096 316.861 53.768 316.861 54.846C316.861 56.162 317.645 56.54 318.681 56.596C318.933 56.61 319.241 56.61 319.549 56.61H320.389V55.042H321.593V56.61H322.937ZM316.469 59.396C316.469 60.74 317.225 61.244 318.975 61.244C319.535 61.244 319.913 61.216 320.389 61.118V57.59H319.549C319.241 57.59 318.975 57.59 318.695 57.618C317.085 57.758 316.469 58.5 316.469 59.396ZM31.192 72.384C32.858 72.384 33.768 73.336 33.922 74.694H32.662C32.494 73.826 31.962 73.308 31.094 73.308C30.254 73.308 29.862 73.77 29.862 74.414C29.862 75.156 30.478 75.45 31.486 75.716C33.194 76.164 34.006 76.836 34.006 78.096C34.006 79.496 32.816 80.196 31.248 80.196C29.722 80.196 28.56 79.496 28.336 77.816H29.596C29.792 78.894 30.478 79.272 31.332 79.272C32.13 79.272 32.774 78.908 32.774 78.194C32.774 77.48 32.27 77.102 31.024 76.766C29.694 76.402 28.63 75.856 28.63 74.554C28.63 73.196 29.666 72.384 31.192 72.384ZM37.1838 73.56V77.83C37.1838 78.082 37.1838 78.208 37.1978 78.404C37.2538 79.118 37.5478 79.272 38.4858 79.16V80.042C38.1358 80.098 37.7998 80.112 37.4638 80.112C36.5398 80.112 36.0638 79.734 35.9938 78.81C35.9798 78.614 35.9798 78.306 35.9798 77.886V73.56H34.9858V72.636H35.9798V70.914H37.1838V72.636H38.5698V73.56H37.1838ZM43.2987 72.384C45.8187 72.384 46.9807 74.19 46.9807 76.29C46.9807 78.376 45.8187 80.196 43.2987 80.196C40.7787 80.196 39.6167 78.376 39.6167 76.29C39.6167 74.19 40.7787 72.384 43.2987 72.384ZM43.2987 79.272C44.7967 79.272 45.6647 78.026 45.6647 76.29C45.6647 74.54 44.7967 73.308 43.2987 73.308C41.8007 73.308 40.9327 74.54 40.9327 76.29C40.9327 78.026 41.8007 79.272 43.2987 79.272ZM52.4398 72.384C54.6098 72.384 55.8138 74.008 55.8138 76.178C55.8138 78.922 54.1058 80.196 52.1878 80.196C51.5718 80.196 50.7878 80.014 50.4098 79.706L49.9198 78.978V82.744H48.7158V72.58H49.9198V73.77L50.4798 72.972C50.8998 72.622 51.6838 72.384 52.4398 72.384ZM52.1878 79.272C53.4898 79.272 54.4978 78.264 54.4978 76.318C54.4978 74.638 53.7418 73.308 52.2578 73.308C51.0258 73.308 49.9198 74.092 49.9198 76.22V76.626C49.9198 78.544 51.1238 79.272 52.1878 79.272ZM59.9064 76.43H56.9664V75.646H59.9064V76.43ZM62.8242 69.71V77.872C62.8242 78.096 62.8242 78.334 62.8382 78.572C62.8662 79.048 63.0902 79.202 63.7482 79.132V80C63.4822 80.042 63.1742 80.056 62.8942 80.056C62.1942 80.056 61.6762 79.832 61.6342 78.894C61.6202 78.642 61.6202 78.32 61.6202 77.914V69.71H62.8242ZM68.4812 72.384C71.0012 72.384 72.1632 74.19 72.1632 76.29C72.1632 78.376 71.0012 80.196 68.4812 80.196C65.9612 80.196 64.7992 78.376 64.7992 76.29C64.7992 74.19 65.9612 72.384 68.4812 72.384ZM68.4812 79.272C69.9792 79.272 70.8472 78.026 70.8472 76.29C70.8472 74.54 69.9792 73.308 68.4812 73.308C66.9832 73.308 66.1152 74.54 66.1152 76.29C66.1152 78.026 66.9832 79.272 68.4812 79.272ZM76.0543 72.384C77.7203 72.384 78.6303 73.336 78.7843 74.694H77.5243C77.3563 73.826 76.8243 73.308 75.9563 73.308C75.1163 73.308 74.7243 73.77 74.7243 74.414C74.7243 75.156 75.3403 75.45 76.3483 75.716C78.0563 76.164 78.8683 76.836 78.8683 78.096C78.8683 79.496 77.6783 80.196 76.1103 80.196C74.5843 80.196 73.4223 79.496 73.1983 77.816H74.4583C74.6543 78.894 75.3403 79.272 76.1943 79.272C76.9923 79.272 77.6363 78.908 77.6363 78.194C77.6363 77.48 77.1323 77.102 75.8863 76.766C74.5563 76.402 73.4923 75.856 73.4923 74.554C73.4923 73.196 74.5283 72.384 76.0543 72.384ZM82.7601 72.384C84.4261 72.384 85.3361 73.336 85.4901 74.694H84.2301C84.0621 73.826 83.5301 73.308 82.6621 73.308C81.8221 73.308 81.4301 73.77 81.4301 74.414C81.4301 75.156 82.0461 75.45 83.0541 75.716C84.7621 76.164 85.5741 76.836 85.5741 78.096C85.5741 79.496 84.3841 80.196 82.8161 80.196C81.2901 80.196 80.1281 79.496 79.9041 77.816H81.1641C81.3601 78.894 82.0461 79.272 82.9001 79.272C83.6981 79.272 84.3421 78.908 84.3421 78.194C84.3421 77.48 83.8381 77.102 82.5921 76.766C81.2621 76.402 80.1981 75.856 80.1981 74.554C80.1981 73.196 81.2341 72.384 82.7601 72.384ZM94.3354 72.384C96.5054 72.384 97.7094 74.008 97.7094 76.178C97.7094 78.922 96.0014 80.196 94.0834 80.196C93.4674 80.196 92.6834 80.014 92.3054 79.706L91.8154 78.978V82.744H90.6114V72.58H91.8154V73.77L92.3754 72.972C92.7954 72.622 93.5794 72.384 94.3354 72.384ZM94.0834 79.272C95.3854 79.272 96.3934 78.264 96.3934 76.318C96.3934 74.638 95.6374 73.308 94.1534 73.308C92.9214 73.308 91.8154 74.092 91.8154 76.22V76.626C91.8154 78.544 93.0194 79.272 94.0834 79.272ZM102.516 72.384C105.036 72.384 106.198 74.19 106.198 76.29C106.198 78.376 105.036 80.196 102.516 80.196C99.996 80.196 98.834 78.376 98.834 76.29C98.834 74.19 99.996 72.384 102.516 72.384ZM102.516 79.272C104.014 79.272 104.882 78.026 104.882 76.29C104.882 74.54 104.014 73.308 102.516 73.308C101.018 73.308 100.15 74.54 100.15 76.29C100.15 78.026 101.018 79.272 102.516 79.272ZM108.535 70.144C108.969 70.144 109.305 70.48 109.305 70.914C109.305 71.348 108.969 71.684 108.535 71.684C108.101 71.684 107.765 71.348 107.765 70.914C107.765 70.48 108.101 70.144 108.535 70.144ZM109.137 80H107.933V72.58H109.137V80ZM117.793 74.554C117.821 74.932 117.821 75.226 117.821 75.828V80H116.617V75.912C116.617 75.534 116.617 75.226 116.589 74.848C116.519 73.98 116.043 73.336 114.895 73.336C113.733 73.336 112.753 74.204 112.753 76.738V80H111.549V72.58H112.753V73.854L113.215 73C113.845 72.51 114.391 72.384 115.147 72.384C116.771 72.384 117.681 73.252 117.793 74.554ZM121.57 73.56V77.83C121.57 78.082 121.57 78.208 121.584 78.404C121.64 79.118 121.934 79.272 122.872 79.16V80.042C122.522 80.098 122.186 80.112 121.85 80.112C120.926 80.112 120.45 79.734 120.38 78.81C120.366 78.614 120.366 78.306 120.366 77.886V73.56H119.372V72.636H120.366V70.914H121.57V72.636H122.956V73.56H121.57ZM126.953 72.384C128.619 72.384 129.529 73.336 129.683 74.694H128.423C128.255 73.826 127.723 73.308 126.855 73.308C126.015 73.308 125.623 73.77 125.623 74.414C125.623 75.156 126.239 75.45 127.247 75.716C128.955 76.164 129.767 76.836 129.767 78.096C129.767 79.496 128.577 80.196 127.009 80.196C125.483 80.196 124.321 79.496 124.097 77.816H125.357C125.553 78.894 126.239 79.272 127.093 79.272C127.891 79.272 128.535 78.908 128.535 78.194C128.535 77.48 128.031 77.102 126.785 76.766C125.455 76.402 124.391 75.856 124.391 74.554C124.391 73.196 125.427 72.384 126.953 72.384Z" fill="white"/>
<path d="M37.4538 36.606H32.4498L31.6218 39H28.9758L33.4938 26.418H36.4278L40.9458 39H38.2818L37.4538 36.606ZM36.7698 34.59L34.9518 29.334L33.1338 34.59H36.7698ZM42.3466 34.014C42.3466 32.982 42.5566 32.082 42.9766 31.314C43.3966 30.534 43.9786 29.934 44.7226 29.514C45.4666 29.082 46.3186 28.866 47.2786 28.866C48.5146 28.866 49.5346 29.178 50.3386 29.802C51.1546 30.414 51.7006 31.278 51.9766 32.394H49.2586C49.1146 31.962 48.8686 31.626 48.5206 31.386C48.1846 31.134 47.7646 31.008 47.2606 31.008C46.5406 31.008 45.9706 31.272 45.5506 31.8C45.1306 32.316 44.9206 33.054 44.9206 34.014C44.9206 34.962 45.1306 35.7 45.5506 36.228C45.9706 36.744 46.5406 37.002 47.2606 37.002C48.2806 37.002 48.9466 36.546 49.2586 35.634H51.9766C51.7006 36.714 51.1546 37.572 50.3386 38.208C49.5226 38.844 48.5026 39.162 47.2786 39.162C46.3186 39.162 45.4666 38.952 44.7226 38.532C43.9786 38.1 43.3966 37.5 42.9766 36.732C42.5566 35.952 42.3466 35.046 42.3466 34.014ZM53.5347 34.014C53.5347 32.982 53.7447 32.082 54.1647 31.314C54.5847 30.534 55.1667 29.934 55.9107 29.514C56.6547 29.082 57.5067 28.866 58.4667 28.866C59.7027 28.866 60.7227 29.178 61.5267 29.802C62.3427 30.414 62.8887 31.278 63.1647 32.394H60.4467C60.3027 31.962 60.0567 31.626 59.7087 31.386C59.3727 31.134 58.9527 31.008 58.4487 31.008C57.7287 31.008 57.1587 31.272 56.7387 31.8C56.3187 32.316 56.1087 33.054 56.1087 34.014C56.1087 34.962 56.3187 35.7 56.7387 36.228C57.1587 36.744 57.7287 37.002 58.4487 37.002C59.4687 37.002 60.1347 36.546 60.4467 35.634H63.1647C62.8887 36.714 62.3427 37.572 61.5267 38.208C60.7107 38.844 59.6907 39.162 58.4667 39.162C57.5067 39.162 56.6547 38.952 55.9107 38.532C55.1667 38.1 54.5847 37.5 54.1647 36.732C53.7447 35.952 53.5347 35.046 53.5347 34.014ZM74.7848 29.028V39H72.2468V37.74C71.9228 38.172 71.4968 38.514 70.9688 38.766C70.4528 39.006 69.8888 39.126 69.2768 39.126C68.4968 39.126 67.8068 38.964 67.2068 38.64C66.6068 38.304 66.1328 37.818 65.7848 37.182C65.4488 36.534 65.2808 35.766 65.2808 34.878V29.028H67.8008V34.518C67.8008 35.31 67.9988 35.922 68.3948 36.354C68.7908 36.774 69.3308 36.984 70.0148 36.984C70.7108 36.984 71.2568 36.774 71.6528 36.354C72.0488 35.922 72.2468 35.31 72.2468 34.518V29.028H74.7848ZM80.1512 30.576C80.4752 30.048 80.8952 29.634 81.4112 29.334C81.9392 29.034 82.5392 28.884 83.2112 28.884V31.53H82.5452C81.7532 31.53 81.1532 31.716 80.7452 32.088C80.3492 32.46 80.1512 33.108 80.1512 34.032V39H77.6312V29.028H80.1512V30.576ZM84.6206 33.978C84.6206 32.97 84.8186 32.076 85.2146 31.296C85.6226 30.516 86.1686 29.916 86.8526 29.496C87.5486 29.076 88.3226 28.866 89.1746 28.866C89.9186 28.866 90.5666 29.016 91.1186 29.316C91.6826 29.616 92.1326 29.994 92.4686 30.45V29.028H95.0066V39H92.4686V37.542C92.1446 38.01 91.6946 38.4 91.1186 38.712C90.5546 39.012 89.9006 39.162 89.1566 39.162C88.3166 39.162 87.5486 38.946 86.8526 38.514C86.1686 38.082 85.6226 37.476 85.2146 36.696C84.8186 35.904 84.6206 34.998 84.6206 33.978ZM92.4686 34.014C92.4686 33.402 92.3486 32.88 92.1086 32.448C91.8686 32.004 91.5446 31.668 91.1366 31.44C90.7286 31.2 90.2906 31.08 89.8226 31.08C89.3546 31.08 88.9226 31.194 88.5266 31.422C88.1306 31.65 87.8066 31.986 87.5546 32.43C87.3146 32.862 87.1946 33.378 87.1946 33.978C87.1946 34.578 87.3146 35.106 87.5546 35.562C87.8066 36.006 88.1306 36.348 88.5266 36.588C88.9346 36.828 89.3666 36.948 89.8226 36.948C90.2906 36.948 90.7286 36.834 91.1366 36.606C91.5446 36.366 91.8686 36.03 92.1086 35.598C92.3486 35.154 92.4686 34.626 92.4686 34.014ZM100.762 31.098V35.922C100.762 36.258 100.84 36.504 100.996 36.66C101.164 36.804 101.44 36.876 101.824 36.876H102.994V39H101.41C99.2858 39 98.2238 37.968 98.2238 35.904V31.098H97.0358V29.028H98.2238V26.562H100.762V29.028H102.994V31.098H100.762ZM114.436 33.798C114.436 34.158 114.412 34.482 114.364 34.77H107.074C107.134 35.49 107.386 36.054 107.83 36.462C108.274 36.87 108.82 37.074 109.468 37.074C110.404 37.074 111.07 36.672 111.466 35.868H114.184C113.896 36.828 113.344 37.62 112.528 38.244C111.712 38.856 110.71 39.162 109.522 39.162C108.562 39.162 107.698 38.952 106.93 38.532C106.174 38.1 105.58 37.494 105.148 36.714C104.728 35.934 104.518 35.034 104.518 34.014C104.518 32.982 104.728 32.076 105.148 31.296C105.568 30.516 106.156 29.916 106.912 29.496C107.668 29.076 108.538 28.866 109.522 28.866C110.47 28.866 111.316 29.07 112.06 29.478C112.816 29.886 113.398 30.468 113.806 31.224C114.226 31.968 114.436 32.826 114.436 33.798ZM111.826 33.078C111.814 32.43 111.58 31.914 111.124 31.53C110.668 31.134 110.11 30.936 109.45 30.936C108.826 30.936 108.298 31.128 107.866 31.512C107.446 31.884 107.188 32.406 107.092 33.078H111.826Z" fill="white"/>
<circle cx="19.9701" cy="32.5673" r="1.97015" fill="white"/>
<path d="M36.672 135.564H35.454V138H34.25V135.564H29.462V134.962L34.25 128.34H35.454V134.584H36.672V135.564ZM34.25 134.584V129.95C34.026 130.328 33.774 130.734 33.452 131.182L30.988 134.584H34.25ZM41.4611 128.144C44.1211 128.144 44.9471 130.356 44.9471 133.17C44.9471 135.97 44.1211 138.196 41.4611 138.196C38.8011 138.196 37.9751 135.97 37.9751 133.17C37.9751 130.356 38.8011 128.144 41.4611 128.144ZM41.4611 137.244C43.0011 137.244 43.6031 135.69 43.6031 133.17C43.6031 130.636 43.0011 129.096 41.4611 129.096C39.9211 129.096 39.3191 130.636 39.3191 133.17C39.3191 135.69 39.9211 137.244 41.4611 137.244ZM52.8022 133.982H50.2682V136.81H49.4562V133.982H46.9222V133.198H49.4562V130.314H50.2682V133.198H52.8022V133.982ZM64.6028 130.58L61.5508 138.63C60.9488 140.198 60.1508 140.94 58.9468 140.94C58.6808 140.94 58.5128 140.94 58.3308 140.912V139.932C58.5128 139.946 58.6388 139.946 58.7648 139.946C59.5068 139.946 59.9968 139.624 60.3748 138.644L60.4728 138.378L57.5188 130.58H58.8768L61.0888 137.104L63.2868 130.58H64.6028ZM71.9791 134.08C71.9791 134.192 71.9791 134.388 71.9511 134.654H66.5751C66.6871 136.614 67.6111 137.272 68.7031 137.272C69.6691 137.272 70.4531 136.67 70.6211 135.606H71.8811C71.5871 137.398 70.1731 138.196 68.6471 138.196C66.7151 138.196 65.2731 136.936 65.2731 134.318C65.2731 131.91 66.7711 130.384 68.8011 130.384C70.8451 130.384 71.9791 131.91 71.9791 134.08ZM68.7731 131.308C67.5971 131.308 66.7291 132.148 66.5891 133.73H70.7611C70.6491 132.19 69.9911 131.308 68.7731 131.308ZM78.1087 138L77.9827 136.936L77.5767 137.734C77.0727 138.084 76.4287 138.196 75.7147 138.196C74.3707 138.196 73.3207 137.454 73.3207 136.082C73.3207 134.402 74.5807 133.534 77.4927 133.534H77.9687V133.338C77.9687 133.016 77.9687 132.722 77.9407 132.442C77.8847 131.756 77.4927 131.308 76.4987 131.308C75.4907 131.308 74.9867 131.854 74.9027 132.876H73.6427C73.7547 131.294 74.8607 130.384 76.4987 130.384C78.2627 130.384 79.0047 131.126 79.1307 132.344C79.1587 132.638 79.1727 133.002 79.1727 133.324V136.11C79.1727 136.67 79.2007 137.174 79.3127 138H78.1087ZM76.1207 137.272C77.2407 137.272 77.9687 136.53 77.9687 135.186V134.43C75.9247 134.276 74.6367 134.71 74.6367 135.984C74.6367 136.88 75.2107 137.272 76.1207 137.272ZM84.4822 130.412C84.6782 130.412 84.8462 130.44 84.9862 130.51V131.42C83.7262 131.336 82.7742 132.078 82.7742 133.772V138H81.5702V130.58H82.7742V131.742L83.4462 130.748C83.7542 130.538 84.1322 130.412 84.4822 130.412ZM88.6273 130.384C90.2933 130.384 91.2033 131.336 91.3573 132.694H90.0973C89.9293 131.826 89.3973 131.308 88.5293 131.308C87.6893 131.308 87.2973 131.77 87.2973 132.414C87.2973 133.156 87.9133 133.45 88.9213 133.716C90.6293 134.164 91.4413 134.836 91.4413 136.096C91.4413 137.496 90.2513 138.196 88.6833 138.196C87.1573 138.196 85.9953 137.496 85.7713 135.816H87.0313C87.2273 136.894 87.9133 137.272 88.7673 137.272C89.5653 137.272 90.2093 136.908 90.2093 136.194C90.2093 135.48 89.7053 135.102 88.4593 134.766C87.1293 134.402 86.0653 133.856 86.0653 132.554C86.0653 131.196 87.1013 130.384 88.6273 130.384ZM99.5446 130.384C102.065 130.384 103.227 132.19 103.227 134.29C103.227 136.376 102.065 138.196 99.5446 138.196C97.0246 138.196 95.8626 136.376 95.8626 134.29C95.8626 132.19 97.0246 130.384 99.5446 130.384ZM99.5446 137.272C101.043 137.272 101.911 136.026 101.911 134.29C101.911 132.54 101.043 131.308 99.5446 131.308C98.0466 131.308 97.1786 132.54 97.1786 134.29C97.1786 136.026 98.0466 137.272 99.5446 137.272ZM106.264 129.152C106.236 129.348 106.222 129.698 106.222 129.908V130.636H107.748V131.56H106.222V138H105.018V131.56H104.22V130.636H105.018V130.02C105.018 129.74 105.032 129.376 105.06 129.124C105.186 128.046 105.914 127.444 107.02 127.444C107.328 127.444 107.622 127.472 107.874 127.514V128.508C106.964 128.34 106.362 128.55 106.264 129.152ZM118.848 132.554C118.876 132.932 118.876 133.226 118.876 133.828V138H117.672V133.912C117.672 133.534 117.672 133.226 117.644 132.848C117.574 131.98 117.098 131.308 115.95 131.336C114.788 131.364 113.808 132.204 113.808 134.738V138H112.604V127.64H113.808V131.854L114.27 131C114.9 130.51 115.446 130.384 116.202 130.384C117.826 130.384 118.736 131.252 118.848 132.554ZM127.343 130.58V138H126.139V136.74L125.677 137.608C125.047 138.07 124.501 138.196 123.745 138.196C122.205 138.196 121.309 137.328 121.141 136.306C121.085 135.928 121.071 135.634 121.071 135.032V130.58H122.275V134.808C122.275 135.046 122.289 135.452 122.331 135.83C122.443 136.67 123.045 137.244 124.053 137.244C125.215 137.244 126.139 136.376 126.139 133.842V130.58H127.343ZM139.618 132.19C139.674 132.568 139.688 132.862 139.688 133.464V138H138.484V134.024C138.484 133.366 138.47 132.96 138.428 132.582C138.316 131.742 137.784 131.336 136.944 131.336C136.006 131.336 135.32 132.078 135.32 134.332V138H134.116V134.024C134.116 133.366 134.102 132.96 134.06 132.582C133.948 131.742 133.416 131.336 132.576 131.336C131.638 131.336 130.952 132.078 130.952 134.332V138H129.748V130.58H130.952V131.658L131.428 130.818C131.806 130.51 132.338 130.384 132.996 130.384C134.13 130.384 134.858 130.958 135.138 131.77L135.796 130.818C136.174 130.51 136.706 130.384 137.364 130.384C138.694 130.384 139.45 131.168 139.618 132.19ZM146.26 138L146.134 136.936L145.728 137.734C145.224 138.084 144.58 138.196 143.866 138.196C142.522 138.196 141.472 137.454 141.472 136.082C141.472 134.402 142.732 133.534 145.644 133.534H146.12V133.338C146.12 133.016 146.12 132.722 146.092 132.442C146.036 131.756 145.644 131.308 144.65 131.308C143.642 131.308 143.138 131.854 143.054 132.876H141.794C141.906 131.294 143.012 130.384 144.65 130.384C146.414 130.384 147.156 131.126 147.282 132.344C147.31 132.638 147.324 133.002 147.324 133.324V136.11C147.324 136.67 147.352 137.174 147.464 138H146.26ZM144.272 137.272C145.392 137.272 146.12 136.53 146.12 135.186V134.43C144.076 134.276 142.788 134.71 142.788 135.984C142.788 136.88 143.362 137.272 144.272 137.272ZM155.966 132.554C155.994 132.932 155.994 133.226 155.994 133.828V138H154.79V133.912C154.79 133.534 154.79 133.226 154.762 132.848C154.692 131.98 154.216 131.336 153.068 131.336C151.906 131.336 150.926 132.204 150.926 134.738V138H149.722V130.58H150.926V131.854L151.388 131C152.018 130.51 152.564 130.384 153.32 130.384C154.944 130.384 155.854 131.252 155.966 132.554ZM167.692 134.08C167.692 134.192 167.692 134.388 167.664 134.654H162.288C162.4 136.614 163.324 137.272 164.416 137.272C165.382 137.272 166.166 136.67 166.334 135.606H167.594C167.3 137.398 165.886 138.196 164.36 138.196C162.428 138.196 160.986 136.936 160.986 134.318C160.986 131.91 162.484 130.384 164.514 130.384C166.558 130.384 167.692 131.91 167.692 134.08ZM164.486 131.308C163.31 131.308 162.442 132.148 162.302 133.73H166.474C166.362 132.19 165.704 131.308 164.486 131.308ZM172.286 134.22L174.918 138H173.518L171.572 135.018L169.64 138H168.254L170.914 134.248L168.352 130.58H169.78L171.642 133.45L173.504 130.58H174.89L172.286 134.22ZM180.132 130.384C182.302 130.384 183.506 132.008 183.506 134.178C183.506 136.922 181.798 138.196 179.88 138.196C179.264 138.196 178.48 138.014 178.102 137.706L177.612 136.978V140.744H176.408V130.58H177.612V131.77L178.172 130.972C178.592 130.622 179.376 130.384 180.132 130.384ZM179.88 137.272C181.182 137.272 182.19 136.264 182.19 134.318C182.19 132.638 181.434 131.308 179.95 131.308C178.718 131.308 177.612 132.092 177.612 134.22V134.626C177.612 136.544 178.816 137.272 179.88 137.272ZM191.337 134.08C191.337 134.192 191.337 134.388 191.309 134.654H185.933C186.045 136.614 186.969 137.272 188.061 137.272C189.027 137.272 189.811 136.67 189.979 135.606H191.239C190.945 137.398 189.531 138.196 188.005 138.196C186.073 138.196 184.631 136.936 184.631 134.318C184.631 131.91 186.129 130.384 188.159 130.384C190.203 130.384 191.337 131.91 191.337 134.08ZM188.131 131.308C186.955 131.308 186.087 132.148 185.947 133.73H190.119C190.007 132.19 189.349 131.308 188.131 131.308ZM196.122 130.412C196.318 130.412 196.486 130.44 196.626 130.51V131.42C195.366 131.336 194.414 132.078 194.414 133.772V138H193.21V130.58H194.414V131.742L195.086 130.748C195.394 130.538 195.772 130.412 196.122 130.412ZM199.553 131.56V135.83C199.553 136.082 199.553 136.208 199.567 136.404C199.623 137.118 199.917 137.272 200.855 137.16V138.042C200.505 138.098 200.169 138.112 199.833 138.112C198.909 138.112 198.433 137.734 198.363 136.81C198.349 136.614 198.349 136.306 198.349 135.886V131.56H197.355V130.636H198.349V128.914H199.553V130.636H200.939V131.56H199.553ZM203.382 128.144C203.816 128.144 204.152 128.48 204.152 128.914C204.152 129.348 203.816 129.684 203.382 129.684C202.948 129.684 202.612 129.348 202.612 128.914C202.612 128.48 202.948 128.144 203.382 128.144ZM203.984 138H202.78V130.58H203.984V138ZM208.552 130.384C210.218 130.384 211.128 131.336 211.282 132.694H210.022C209.854 131.826 209.322 131.308 208.454 131.308C207.614 131.308 207.222 131.77 207.222 132.414C207.222 133.156 207.838 133.45 208.846 133.716C210.554 134.164 211.366 134.836 211.366 136.096C211.366 137.496 210.176 138.196 208.608 138.196C207.082 138.196 205.92 137.496 205.696 135.816H206.956C207.152 136.894 207.838 137.272 208.692 137.272C209.49 137.272 210.134 136.908 210.134 136.194C210.134 135.48 209.63 135.102 208.384 134.766C207.054 134.402 205.99 133.856 205.99 132.554C205.99 131.196 207.026 130.384 208.552 130.384ZM219.192 134.08C219.192 134.192 219.192 134.388 219.164 134.654H213.788C213.9 136.614 214.824 137.272 215.916 137.272C216.882 137.272 217.666 136.67 217.834 135.606H219.094C218.8 137.398 217.386 138.196 215.86 138.196C213.928 138.196 212.486 136.936 212.486 134.318C212.486 131.91 213.984 130.384 216.014 130.384C218.058 130.384 219.192 131.91 219.192 134.08ZM215.986 131.308C214.81 131.308 213.942 132.148 213.802 133.73H217.974C217.862 132.19 217.204 131.308 215.986 131.308ZM225.669 129.152C225.641 129.348 225.627 129.698 225.627 129.908V130.636H227.153V131.56H225.627V138H224.423V131.56H223.625V130.636H224.423V130.02C224.423 129.74 224.437 129.376 224.465 129.124C224.591 128.046 225.319 127.444 226.425 127.444C226.733 127.444 227.027 127.472 227.279 127.514V128.508C226.369 128.34 225.767 128.55 225.669 129.152ZM234.867 130.58V138H233.663V136.74L233.201 137.608C232.571 138.07 232.025 138.196 231.269 138.196C229.729 138.196 228.833 137.328 228.665 136.306C228.609 135.928 228.595 135.634 228.595 135.032V130.58H229.799V134.808C229.799 135.046 229.813 135.452 229.855 135.83C229.967 136.67 230.569 137.244 231.577 137.244C232.739 137.244 233.663 136.376 233.663 133.842V130.58H234.867ZM239.429 130.384C241.095 130.384 242.005 131.336 242.159 132.694H240.899C240.731 131.826 240.199 131.308 239.331 131.308C238.491 131.308 238.099 131.77 238.099 132.414C238.099 133.156 238.715 133.45 239.723 133.716C241.431 134.164 242.243 134.836 242.243 136.096C242.243 137.496 241.053 138.196 239.485 138.196C237.959 138.196 236.797 137.496 236.573 135.816H237.833C238.029 136.894 238.715 137.272 239.569 137.272C240.367 137.272 241.011 136.908 241.011 136.194C241.011 135.48 240.507 135.102 239.261 134.766C237.931 134.402 236.867 133.856 236.867 132.554C236.867 131.196 237.903 130.384 239.429 130.384ZM250.068 134.08C250.068 134.192 250.068 134.388 250.04 134.654H244.664C244.776 136.614 245.7 137.272 246.792 137.272C247.758 137.272 248.542 136.67 248.71 135.606H249.97C249.676 137.398 248.262 138.196 246.736 138.196C244.804 138.196 243.362 136.936 243.362 134.318C243.362 131.91 244.86 130.384 246.89 130.384C248.934 130.384 250.068 131.91 250.068 134.08ZM246.862 131.308C245.686 131.308 244.818 132.148 244.678 133.73H248.85C248.738 132.19 248.08 131.308 246.862 131.308ZM258.424 127.71V138H257.22V136.81L256.66 137.608C256.24 137.958 255.456 138.196 254.7 138.196C252.53 138.196 251.326 136.572 251.326 134.402C251.326 131.658 253.034 130.384 254.952 130.384C255.568 130.384 256.352 130.566 256.73 130.874L257.22 131.602V127.71H258.424ZM254.882 137.272C256.114 137.272 257.22 136.488 257.22 134.36V133.954C257.22 132.036 256.016 131.308 254.952 131.308C253.65 131.308 252.642 132.316 252.642 134.262C252.642 135.942 253.398 137.272 254.882 137.272ZM274.007 130.58L271.641 138H270.213L268.561 131.756L266.909 138H265.481L263.115 130.58H264.501L266.223 136.852L267.847 130.58H269.345L270.997 136.81L272.719 130.58H274.007ZM276.011 128.144C276.445 128.144 276.781 128.48 276.781 128.914C276.781 129.348 276.445 129.684 276.011 129.684C275.577 129.684 275.241 129.348 275.241 128.914C275.241 128.48 275.577 128.144 276.011 128.144ZM276.613 138H275.409V130.58H276.613V138ZM280.467 131.56V135.83C280.467 136.082 280.467 136.208 280.481 136.404C280.537 137.118 280.831 137.272 281.769 137.16V138.042C281.419 138.098 281.083 138.112 280.747 138.112C279.823 138.112 279.347 137.734 279.277 136.81C279.263 136.614 279.263 136.306 279.263 135.886V131.56H278.269V130.636H279.263V128.914H280.467V130.636H281.853V131.56H280.467ZM289.938 132.554C289.966 132.932 289.966 133.226 289.966 133.828V138H288.762V133.912C288.762 133.534 288.762 133.226 288.734 132.848C288.664 131.98 288.188 131.308 287.04 131.336C285.878 131.364 284.898 132.204 284.898 134.738V138H283.694V127.64H284.898V131.854L285.36 131C285.99 130.51 286.536 130.384 287.292 130.384C288.916 130.384 289.826 131.252 289.938 132.554ZM35.384 152.584H31.828L30.694 156H29.406L32.878 146.34H34.502L37.834 156H36.532L35.384 152.584ZM32.164 151.604H35.062L33.662 147.292L32.164 151.604ZM42.1694 148.412C42.3654 148.412 42.5334 148.44 42.6734 148.51V149.42C41.4134 149.336 40.4614 150.078 40.4614 151.772V156H39.2574V148.58H40.4614V149.742L41.1334 148.748C41.4414 148.538 41.8194 148.412 42.1694 148.412ZM45.6005 149.56V153.83C45.6005 154.082 45.6005 154.208 45.6145 154.404C45.6705 155.118 45.9645 155.272 46.9025 155.16V156.042C46.5525 156.098 46.2165 156.112 45.8805 156.112C44.9565 156.112 44.4805 155.734 44.4105 154.81C44.3965 154.614 44.3965 154.306 44.3965 153.886V149.56H43.4025V148.636H44.3965V146.914H45.6005V148.636H46.9865V149.56H45.6005ZM49.4292 146.144C49.8632 146.144 50.1992 146.48 50.1992 146.914C50.1992 147.348 49.8632 147.684 49.4292 147.684C48.9952 147.684 48.6592 147.348 48.6592 146.914C48.6592 146.48 48.9952 146.144 49.4292 146.144ZM50.0312 156H48.8272V148.58H50.0312V156ZM57.6231 148.636V156H56.4191V149.56H53.7031V156H52.4991V149.56H51.7011V148.636H52.4991V148.44C52.4991 148.16 52.5131 147.796 52.5411 147.544C52.6951 146.186 53.6191 145.444 55.5651 145.444C55.8731 145.444 56.1671 145.472 56.4191 145.514V146.508C54.5571 146.354 53.8711 146.69 53.7451 147.572C53.7171 147.768 53.7031 148.118 53.7031 148.328V148.636H57.6231ZM62.9076 148.384C64.6856 148.384 65.8196 149.448 66.0436 151.072H64.7836C64.5176 149.882 63.8736 149.308 62.8796 149.308C61.7176 149.308 60.7376 150.218 60.7376 152.22C60.7376 154.376 61.6896 155.272 62.7956 155.272C63.7756 155.272 64.4616 154.712 64.7136 153.634H65.9736C65.6096 155.356 64.3776 156.196 62.7256 156.196C60.8496 156.196 59.4216 155.02 59.4216 152.304C59.4216 149.798 61.0456 148.384 62.9076 148.384ZM68.3297 146.144C68.7637 146.144 69.0997 146.48 69.0997 146.914C69.0997 147.348 68.7637 147.684 68.3297 147.684C67.8957 147.684 67.5597 147.348 67.5597 146.914C67.5597 146.48 67.8957 146.144 68.3297 146.144ZM68.9317 156H67.7277V148.58H68.9317V156ZM75.5997 156L75.4737 154.936L75.0677 155.734C74.5637 156.084 73.9197 156.196 73.2057 156.196C71.8617 156.196 70.8117 155.454 70.8117 154.082C70.8117 152.402 72.0717 151.534 74.9837 151.534H75.4597V151.338C75.4597 151.016 75.4597 150.722 75.4317 150.442C75.3757 149.756 74.9837 149.308 73.9897 149.308C72.9817 149.308 72.4777 149.854 72.3937 150.876H71.1337C71.2457 149.294 72.3517 148.384 73.9897 148.384C75.7537 148.384 76.4957 149.126 76.6217 150.344C76.6497 150.638 76.6637 151.002 76.6637 151.324V154.11C76.6637 154.67 76.6917 155.174 76.8037 156H75.5997ZM73.6117 155.272C74.7317 155.272 75.4597 154.53 75.4597 153.186V152.43C73.4157 152.276 72.1277 152.71 72.1277 153.984C72.1277 154.88 72.7017 155.272 73.6117 155.272ZM80.2092 145.71V153.872C80.2092 154.096 80.2092 154.334 80.2232 154.572C80.2512 155.048 80.4752 155.202 81.1332 155.132V156C80.8672 156.042 80.5592 156.056 80.2792 156.056C79.5792 156.056 79.0612 155.832 79.0192 154.894C79.0052 154.642 79.0052 154.32 79.0052 153.914V145.71H80.2092ZM87.6696 156H86.4656V146.34H87.6696V156ZM96.317 150.554C96.345 150.932 96.345 151.226 96.345 151.828V156H95.141V151.912C95.141 151.534 95.141 151.226 95.113 150.848C95.043 149.98 94.567 149.336 93.419 149.336C92.257 149.336 91.277 150.204 91.277 152.738V156H90.073V148.58H91.277V149.854L91.739 149C92.369 148.51 92.915 148.384 93.671 148.384C95.295 148.384 96.205 149.252 96.317 150.554ZM100.094 149.56V153.83C100.094 154.082 100.094 154.208 100.108 154.404C100.164 155.118 100.458 155.272 101.396 155.16V156.042C101.046 156.098 100.71 156.112 100.374 156.112C99.4499 156.112 98.9739 155.734 98.9039 154.81C98.8899 154.614 98.8899 154.306 98.8899 153.886V149.56H97.8959V148.636H98.8899V146.914H100.094V148.636H101.48V149.56H100.094ZM109.233 152.08C109.233 152.192 109.233 152.388 109.205 152.654H103.829C103.941 154.614 104.865 155.272 105.957 155.272C106.923 155.272 107.707 154.67 107.875 153.606H109.135C108.841 155.398 107.427 156.196 105.901 156.196C103.969 156.196 102.527 154.936 102.527 152.318C102.527 149.91 104.025 148.384 106.055 148.384C108.099 148.384 109.233 149.91 109.233 152.08ZM106.027 149.308C104.851 149.308 103.983 150.148 103.843 151.73H108.015C107.903 150.19 107.245 149.308 106.027 149.308ZM112.254 145.71V153.872C112.254 154.096 112.254 154.334 112.268 154.572C112.296 155.048 112.52 155.202 113.178 155.132V156C112.912 156.042 112.604 156.056 112.324 156.056C111.624 156.056 111.106 155.832 111.064 154.894C111.05 154.642 111.05 154.32 111.05 153.914V145.71H112.254ZM115.993 145.71V153.872C115.993 154.096 115.993 154.334 116.007 154.572C116.035 155.048 116.259 155.202 116.917 155.132V156C116.651 156.042 116.343 156.056 116.063 156.056C115.363 156.056 114.845 155.832 114.803 154.894C114.789 154.642 114.789 154.32 114.789 153.914V145.71H115.993ZM119.186 146.144C119.62 146.144 119.956 146.48 119.956 146.914C119.956 147.348 119.62 147.684 119.186 147.684C118.752 147.684 118.416 147.348 118.416 146.914C118.416 146.48 118.752 146.144 119.186 146.144ZM119.788 156H118.584V148.58H119.788V156ZM128.682 148.58V154.18C128.682 154.642 128.682 155.216 128.668 155.622C128.598 157.792 127.282 158.94 125.14 158.94C123.026 158.94 121.976 158.058 121.822 156.49L121.808 156.35H123.026L123.04 156.476C123.138 157.386 123.866 158.016 125.14 158.016C126.61 158.016 127.408 157.176 127.464 155.748C127.478 155.398 127.478 155.16 127.478 154.936V154.81L126.918 155.608C126.498 155.958 125.714 156.196 124.958 156.196C122.788 156.196 121.584 154.572 121.584 152.402C121.584 149.658 123.292 148.384 125.21 148.384C125.826 148.384 126.61 148.566 126.988 148.874L127.478 149.602V148.58H128.682ZM125.14 155.272C126.372 155.272 127.478 154.488 127.478 152.36V151.954C127.478 150.036 126.274 149.308 125.21 149.308C123.908 149.308 122.9 150.316 122.9 152.262C122.9 153.942 123.656 155.272 125.14 155.272ZM137.184 152.08C137.184 152.192 137.184 152.388 137.156 152.654H131.78C131.892 154.614 132.816 155.272 133.908 155.272C134.874 155.272 135.658 154.67 135.826 153.606H137.086C136.792 155.398 135.378 156.196 133.852 156.196C131.92 156.196 130.478 154.936 130.478 152.318C130.478 149.91 131.976 148.384 134.006 148.384C136.05 148.384 137.184 149.91 137.184 152.08ZM133.978 149.308C132.802 149.308 131.934 150.148 131.794 151.73H135.966C135.854 150.19 135.196 149.308 133.978 149.308ZM145.301 150.554C145.329 150.932 145.329 151.226 145.329 151.828V156H144.125V151.912C144.125 151.534 144.125 151.226 144.097 150.848C144.027 149.98 143.551 149.336 142.403 149.336C141.241 149.336 140.261 150.204 140.261 152.738V156H139.057V148.58H140.261V149.854L140.723 149C141.353 148.51 141.899 148.384 142.655 148.384C144.279 148.384 145.189 149.252 145.301 150.554ZM150.506 148.384C152.284 148.384 153.418 149.448 153.642 151.072H152.382C152.116 149.882 151.472 149.308 150.478 149.308C149.316 149.308 148.336 150.218 148.336 152.22C148.336 154.376 149.288 155.272 150.394 155.272C151.374 155.272 152.06 154.712 152.312 153.634H153.572C153.208 155.356 151.976 156.196 150.324 156.196C148.448 156.196 147.02 155.02 147.02 152.304C147.02 149.798 148.644 148.384 150.506 148.384ZM161.416 152.08C161.416 152.192 161.416 152.388 161.388 152.654H156.012C156.124 154.614 157.048 155.272 158.14 155.272C159.106 155.272 159.89 154.67 160.058 153.606H161.318C161.024 155.398 159.61 156.196 158.084 156.196C156.152 156.196 154.71 154.936 154.71 152.318C154.71 149.91 156.208 148.384 158.238 148.384C160.282 148.384 161.416 149.91 161.416 152.08ZM158.21 149.308C157.034 149.308 156.166 150.148 156.026 151.73H160.198C160.086 150.19 159.428 149.308 158.21 149.308Z" fill="white"/>
<path d="M34.0878 115.126C33.2118 115.126 32.4198 114.976 31.7118 114.676C31.0158 114.376 30.4638 113.944 30.0558 113.38C29.6478 112.816 29.4378 112.15 29.4258 111.382H32.1258C32.1618 111.898 32.3418 112.306 32.6658 112.606C33.0018 112.906 33.4578 113.056 34.0338 113.056C34.6218 113.056 35.0838 112.918 35.4198 112.642C35.7558 112.354 35.9238 111.982 35.9238 111.526C35.9238 111.154 35.8098 110.848 35.5818 110.608C35.3538 110.368 35.0658 110.182 34.7178 110.05C34.3818 109.906 33.9138 109.75 33.3138 109.582C32.4978 109.342 31.8318 109.108 31.3158 108.88C30.8118 108.64 30.3738 108.286 30.0018 107.818C29.6418 107.338 29.4618 106.702 29.4618 105.91C29.4618 105.166 29.6478 104.518 30.0198 103.966C30.3918 103.414 30.9138 102.994 31.5858 102.706C32.2578 102.406 33.0258 102.256 33.8898 102.256C35.1858 102.256 36.2358 102.574 37.0398 103.21C37.8558 103.834 38.3058 104.71 38.3898 105.838H35.6178C35.5938 105.406 35.4078 105.052 35.0598 104.776C34.7238 104.488 34.2738 104.344 33.7098 104.344C33.2178 104.344 32.8218 104.47 32.5218 104.722C32.2338 104.974 32.0898 105.34 32.0898 105.82C32.0898 106.156 32.1978 106.438 32.4138 106.666C32.6418 106.882 32.9178 107.062 33.2418 107.206C33.5778 107.338 34.0458 107.494 34.6458 107.674C35.4618 107.914 36.1278 108.154 36.6438 108.394C37.1598 108.634 37.6038 108.994 37.9758 109.474C38.3478 109.954 38.5338 110.584 38.5338 111.364C38.5338 112.036 38.3598 112.66 38.0118 113.236C37.6638 113.812 37.1538 114.274 36.4818 114.622C35.8098 114.958 35.0118 115.126 34.0878 115.126ZM53.4626 104.884C54.6866 104.884 55.6706 105.262 56.4146 106.018C57.1706 106.762 57.5486 107.806 57.5486 109.15V115H55.0286V109.492C55.0286 108.712 54.8306 108.118 54.4346 107.71C54.0386 107.29 53.4986 107.08 52.8146 107.08C52.1306 107.08 51.5846 107.29 51.1766 107.71C50.7806 108.118 50.5826 108.712 50.5826 109.492V115H48.0626V109.492C48.0626 108.712 47.8646 108.118 47.4686 107.71C47.0726 107.29 46.5326 107.08 45.8486 107.08C45.1526 107.08 44.6006 107.29 44.1926 107.71C43.7966 108.118 43.5986 108.712 43.5986 109.492V115H41.0786V105.028H43.5986V106.234C43.9226 105.814 44.3366 105.484 44.8406 105.244C45.3566 105.004 45.9206 104.884 46.5326 104.884C47.3126 104.884 48.0086 105.052 48.6206 105.388C49.2326 105.712 49.7066 106.18 50.0426 106.792C50.3666 106.216 50.8346 105.754 51.4466 105.406C52.0706 105.058 52.7426 104.884 53.4626 104.884ZM59.6519 109.978C59.6519 108.97 59.8499 108.076 60.2459 107.296C60.6539 106.516 61.1999 105.916 61.8839 105.496C62.5799 105.076 63.3539 104.866 64.2059 104.866C64.9499 104.866 65.5979 105.016 66.1499 105.316C66.7139 105.616 67.1639 105.994 67.4999 106.45V105.028H70.0379V115H67.4999V113.542C67.1759 114.01 66.7259 114.4 66.1499 114.712C65.5859 115.012 64.9319 115.162 64.1879 115.162C63.3479 115.162 62.5799 114.946 61.8839 114.514C61.1999 114.082 60.6539 113.476 60.2459 112.696C59.8499 111.904 59.6519 110.998 59.6519 109.978ZM67.4999 110.014C67.4999 109.402 67.3799 108.88 67.1399 108.448C66.8999 108.004 66.5759 107.668 66.1679 107.44C65.7599 107.2 65.3219 107.08 64.8539 107.08C64.3859 107.08 63.9539 107.194 63.5579 107.422C63.1619 107.65 62.8379 107.986 62.5859 108.43C62.3459 108.862 62.2259 109.378 62.2259 109.978C62.2259 110.578 62.3459 111.106 62.5859 111.562C62.8379 112.006 63.1619 112.348 63.5579 112.588C63.9659 112.828 64.3979 112.948 64.8539 112.948C65.3219 112.948 65.7599 112.834 66.1679 112.606C66.5759 112.366 66.8999 112.03 67.1399 111.598C67.3799 111.154 67.4999 110.626 67.4999 110.014ZM75.3791 106.576C75.7031 106.048 76.1231 105.634 76.6391 105.334C77.1671 105.034 77.7671 104.884 78.4391 104.884V107.53H77.7731C76.9811 107.53 76.3811 107.716 75.9731 108.088C75.5771 108.46 75.3791 109.108 75.3791 110.032V115H72.8591V105.028H75.3791V106.576ZM83.4305 107.098V111.922C83.4305 112.258 83.5085 112.504 83.6645 112.66C83.8325 112.804 84.1085 112.876 84.4925 112.876H85.6625V115H84.0785C81.9545 115 80.8925 113.968 80.8925 111.904V107.098H79.7045V105.028H80.8925V102.562H83.4305V105.028H85.6625V107.098H83.4305Z" fill="white"/>
<circle cx="19.9701" cy="108.911" r="1.97015" fill="white"/>
<defs>
<filter id="filter0_b_3236_2260" x="-5.51642" y="-5.51642" width="361.033" height="271.033" filterUnits="userSpaceOnUse" color-interpolation-filters="sRGB">
<feFlood flood-opacity="0" result="BackgroundImageFix"/>
<feGaussianBlur in="BackgroundImageFix" stdDeviation="2.75821"/>
<feComposite in2="SourceAlpha" operator="in" result="effect1_backgroundBlur_3236_2260"/>
<feBlend mode="normal" in="SourceGraphic" in2="effect1_backgroundBlur_3236_2260" result="shape"/>
</filter>
<filter id="filter1_f_3236_2260" x="105.768" y="-104.023" width="360.582" height="445.645" filterUnits="userSpaceOnUse" color-interpolation-filters="sRGB">
<feFlood flood-opacity="0" result="BackgroundImageFix"/>
<feBlend mode="normal" in="SourceGraphic" in2="BackgroundImageFix" result="shape"/>
<feGaussianBlur stdDeviation="59.1045" result="effect1_foregroundBlur_3236_2260"/>
</filter>
<linearGradient id="paint0_linear_3236_2260" x1="181.433" y1="118.799" x2="326.738" y2="114.964" gradientUnits="userSpaceOnUse">
<stop stop-color="#003DEE"/>
<stop offset="1" stop-color="#2AD9D5"/>
</linearGradient>
<clipPath id="clip0_3236_2260">
<rect width="350" height="260" rx="13.1343" fill="white"/>
</clipPath>
</defs>
</svg>
