<svg width="48" height="48" viewBox="0 0 48 48" fill="none" xmlns="http://www.w3.org/2000/svg">
<g filter="url(#filter0_b_3734_2480)">
<rect width="48" height="48" rx="4" fill="white" fill-opacity="0.06"/>
</g>
<path d="M11.5047 26.8598L10.1963 27.6881V30.2991H11.5047V32.1535H12.4168V30.2991H13.7255V25.4492L12.4168 26.2775L11.5047 26.8598Z" fill="white"/>
<path d="M12.4168 22.6041L13.7255 21.7698V12.7728H12.4168V11.4224H11.5047V12.7728H10.1963V24.0146L11.5047 23.1864L12.4168 22.6041Z" fill="white"/>
<path d="M16.2153 18.0428H18.8201V19.5312L19.2704 19.8012V17.5804H17.9617V14.1113H17.0436V17.5804H15.7412V20.4915L16.2153 20.1915V18.0428Z" fill="white"/>
<path d="M18.8201 26.5895H16.2153V23.8645L15.7412 24.1706V27.0216H17.0436V28.2701H17.9617V27.0216H19.2704V23.4323L18.8201 23.1562V26.5895Z" fill="white"/>
<path d="M22.5895 25.4489L21.2871 24.6567V27.6818H22.5895V28.1499H23.5076V27.6818H24.8163V26.7994L23.5076 26.0072L22.5895 25.4489Z" fill="white"/>
<mask id="mask0_3734_2480" style="mask-type:luminance" maskUnits="userSpaceOnUse" x="21" y="10" width="4" height="14">
<path d="M21.2578 10H24.8709V23.1958H21.2578V10Z" fill="white"/>
</mask>
<g mask="url(#mask0_3734_2480)">
<path d="M23.5096 22.376L24.8182 23.1682V12.3226H23.5096V9.98779H22.5914V12.3226H21.2891V21.0255L22.5914 21.8177L23.5096 22.376Z" fill="white"/>
</g>
<path d="M27.3323 24.6573V21.8544H29.8589V22.4006L30.357 21.9563V21.1281H29.0547V19.6997H28.1365V21.1281H26.8281V24.3933L27.3022 24.6813L27.3323 24.6573Z" fill="white"/>
<mask id="mask1_3734_2480" style="mask-type:luminance" maskUnits="userSpaceOnUse" x="26" y="26" width="5" height="12">
<path d="M26.8105 26.0728H30.3567V37.8509H26.8105V26.0728Z" fill="white"/>
</mask>
<g mask="url(#mask1_3734_2480)">
<path d="M29.856 33.5936H27.3294V28.3297L26.8252 28.0236V34.3199H28.1336V37.8609H29.0517V34.3199H30.3541V26.1089L29.856 26.5592V33.5936Z" fill="white"/>
</g>
<path d="M34.5992 18.1809L35.9076 17.0165V15.2578L35.7756 15.1739H34.5752V12.0347H33.6811V15.1679H32.3965V20.1555L33.7051 18.9911L34.5992 18.1809Z" fill="white"/>
<path d="M33.6817 23.1501L32.373 24.3144V28.9061H33.6817V30.2025H34.5938V28.9061H35.9022V21.1694L34.5938 22.3338L33.6817 23.1501Z" fill="white"/>
<path d="M41.0217 13.6735L40.1394 13.5592L36.7482 13.1212C36.6977 13.1147 36.6473 13.1131 36.5966 13.1165C36.5456 13.1201 36.496 13.1285 36.4468 13.1418C36.3977 13.1552 36.3504 13.1729 36.3046 13.1957C36.2592 13.2182 36.2163 13.2451 36.1761 13.2762C36.1358 13.3073 36.099 13.342 36.0655 13.3802C36.032 13.4186 36.0028 13.4599 35.9774 13.5038C35.9521 13.548 35.9314 13.5943 35.915 13.6424C35.8988 13.6907 35.8875 13.7398 35.881 13.7903C35.8744 13.8407 35.8729 13.8914 35.8765 13.9421C35.8799 13.9928 35.8883 14.0428 35.9016 14.0919C35.915 14.141 35.9327 14.1883 35.9555 14.2338C35.9779 14.2796 36.0049 14.3224 36.036 14.3627C36.0671 14.4029 36.1018 14.4398 36.14 14.4732C36.1784 14.5067 36.2197 14.536 36.2639 14.5613C36.3078 14.5867 36.354 14.6073 36.4021 14.6235C36.4505 14.6397 36.4999 14.6512 36.5503 14.6578L38.2787 14.8797L39.2991 15.0119L38.5369 15.7022L35.9019 18.049L34.5935 19.2133L33.6753 20.0296L32.3968 21.2L30.3801 23.0005L29.8819 23.4446L29.0777 24.1649L28.1355 24.9751L27.3851 25.6413L27.3253 25.6053L26.8271 25.2992L24.8104 24.0988L23.5018 23.3066L22.5896 22.7245L21.2813 21.9321L19.2646 20.7319L18.8143 20.4616L18.0221 19.9815L17.9499 20.0236L17.0318 20.6237L16.1915 21.1098L15.7174 21.4099L13.7007 22.6884L12.3923 23.5167L11.4739 24.1168L10.1896 24.9333L6.36033 27.37C6.31721 27.3972 6.27748 27.4283 6.24063 27.4633C6.20378 27.4983 6.17058 27.5368 6.14131 27.5783C6.11204 27.6199 6.08721 27.6638 6.06656 27.7103C6.04591 27.7568 6.02997 27.8049 6.01899 27.8546C6.00775 27.904 6.00148 27.9542 6.00017 28.0051C5.99913 28.0558 6.00279 28.1063 6.01141 28.1565C6.02004 28.2066 6.03363 28.2553 6.05192 28.3028C6.07022 28.3501 6.09296 28.3953 6.12014 28.4385C6.14732 28.4813 6.17842 28.5213 6.21345 28.5579C6.24847 28.5948 6.28689 28.628 6.32845 28.6572C6.37 28.6865 6.41391 28.7113 6.46043 28.732C6.50696 28.7526 6.55505 28.7686 6.60471 28.7795C6.6541 28.7908 6.70428 28.7971 6.75525 28.7984C6.80595 28.7994 6.8564 28.7958 6.90658 28.7871C6.95676 28.7785 7.00537 28.7649 7.05294 28.7466C7.10025 28.7283 7.14546 28.7056 7.18859 28.6784L10.1896 26.7699L11.4979 25.9414L12.4161 25.3413L13.7247 24.5251L15.7414 23.2467L16.2155 22.9464L17.0438 22.4182L17.962 21.8181L18.0521 21.764L18.8263 22.2324L19.2766 22.5024L21.2933 23.7028L22.5896 24.5251L23.5078 25.0833L24.8165 25.8755L26.8329 27.076L27.3313 27.382L27.5652 27.526L28.1656 27.0159L29.0777 26.1996L29.8819 25.4793L30.3801 25.0352L32.3968 23.2347L33.6813 22.1242L34.5995 21.3079L35.9079 20.1435L39.2092 17.1967L40.0913 16.4102L39.9412 17.6107L39.7792 18.8772C39.7727 18.9277 39.7714 18.9781 39.7748 19.0288C39.7782 19.0795 39.7865 19.1294 39.7998 19.1786C39.8132 19.2277 39.8312 19.275 39.8537 19.3208C39.8764 19.3662 39.9031 19.4091 39.9342 19.4494C39.9653 19.4896 40.0001 19.5265 40.0385 19.5599C40.0766 19.5934 40.1179 19.6226 40.1621 19.648C40.2063 19.6733 40.2523 19.694 40.3006 19.7105C40.3487 19.7267 40.3981 19.7379 40.4486 19.7444C40.499 19.751 40.5494 19.7525 40.6004 19.7489C40.6511 19.7455 40.701 19.7371 40.7502 19.7238C40.799 19.7105 40.8463 19.6927 40.8921 19.6699C40.9376 19.6475 40.9804 19.6205 41.0207 19.5894C41.0609 19.5583 41.0978 19.5236 41.1312 19.4854C41.1647 19.447 41.1942 19.4057 41.2193 19.3615C41.2447 19.3176 41.2656 19.2714 41.2818 19.2233C41.298 19.1749 41.3092 19.1255 41.3158 19.0751L41.718 15.9181L41.874 14.7176L42 13.7994L41.0217 13.6735Z" fill="white"/>
<defs>
<filter id="filter0_b_3734_2480" x="-10.8" y="-10.8" width="69.6" height="69.6" filterUnits="userSpaceOnUse" color-interpolation-filters="sRGB">
<feFlood flood-opacity="0" result="BackgroundImageFix"/>
<feGaussianBlur in="BackgroundImageFix" stdDeviation="5.4"/>
<feComposite in2="SourceAlpha" operator="in" result="effect1_backgroundBlur_3734_2480"/>
<feBlend mode="normal" in="SourceGraphic" in2="effect1_backgroundBlur_3734_2480" result="shape"/>
</filter>
</defs>
</svg>
