<svg width="48" height="48" viewBox="0 0 48 48" fill="none" xmlns="http://www.w3.org/2000/svg">
<g filter="url(#filter0_b_3705_2391)">
<rect width="48" height="48" rx="4" fill="white" fill-opacity="0.06"/>
</g>
<mask id="mask0_3705_2391" style="mask-type:luminance" maskUnits="userSpaceOnUse" x="19" y="6" width="21" height="36">
<path d="M19.6406 6H39.3206V41.3541H19.6406V6Z" fill="white"/>
</mask>
<g mask="url(#mask0_3705_2391)">
<path d="M30.9752 17.4841V16.1331C30.9752 15.2041 30.2152 14.4159 29.2583 14.4159H28.7236V11.6013C31.2567 11.32 33.227 9.18063 33.227 6.56313C33.227 6.25344 32.9736 6 32.6639 6H21.4052C21.0955 6 20.8423 6.25344 20.8423 6.56313C20.8423 9.18063 22.8127 11.32 25.3458 11.6013V14.4441H24.8111C23.882 14.4441 23.0939 15.2041 23.0939 16.1613V17.5122C21.8836 17.9344 20.758 18.5256 19.7727 19.2572L20.5608 20.0734C22.3905 18.7506 24.6139 17.9906 27.0345 17.9906C33.1708 17.9906 38.1527 22.9728 38.1527 29.1088C38.1527 35.2447 33.1708 40.2269 27.0345 40.2269C24.5858 40.2269 22.3061 39.4106 20.4764 38.0594L19.6602 38.8756C21.7148 40.4238 24.2761 41.3528 27.0345 41.3528C33.7898 41.3528 39.2786 35.8641 39.2786 29.1088C39.2786 23.7044 35.7883 19.1447 30.9752 17.4841ZM27.5977 14.4441H26.4717V11.6294H27.5977V14.4441Z" fill="white"/>
</g>
<mask id="mask1_3705_2391" style="mask-type:luminance" maskUnits="userSpaceOnUse" x="9" y="15" width="27" height="27">
<path d="M9 15.834H35.8V41.9999H9V15.834Z" fill="white"/>
</mask>
<g mask="url(#mask1_3705_2391)">
<path d="M27.0346 37.8062C31.8477 37.8062 35.7602 33.8937 35.7602 29.0805C35.7602 24.2674 31.8477 20.3549 27.0346 20.3549C24.8674 20.3549 22.8971 21.143 21.3489 22.4658L19.7727 20.8615L15.1002 16.0765C14.9877 15.964 14.8471 15.9077 14.7064 15.9077H14.678C14.5374 15.9077 14.3968 15.964 14.3124 16.0765C10.9908 19.3699 9.02051 24.2393 9.02051 29.0805C9.02051 33.8937 10.9064 38.4252 14.2839 41.8312C14.3968 41.9437 14.5374 41.9999 14.678 41.9999C14.678 41.9999 14.678 41.9999 14.7064 41.9999C14.8471 41.9999 14.9877 41.9437 15.1002 41.8312L21.2927 35.6387C22.8127 36.9899 24.8393 37.8062 27.0346 37.8062ZM31.6227 33.6683C31.5102 33.7812 31.3693 33.8374 31.2286 33.8374C31.0877 33.8374 30.9471 33.7812 30.8346 33.6683L30.0464 32.8802C29.8211 32.6552 29.8211 32.3174 30.0464 32.0921C30.2714 31.8671 30.6093 31.8671 30.8346 32.0921L31.6227 32.8802C31.8196 33.0774 31.8196 33.4433 31.6227 33.6683ZM32.9455 28.5174C33.2552 28.5174 33.5086 28.7708 33.5086 29.0805C33.5086 29.3902 33.2552 29.6433 32.9455 29.6433H31.8196C31.5102 29.6433 31.2568 29.3902 31.2568 29.0805C31.2568 28.7708 31.5102 28.5174 31.8196 28.5174H32.9455ZM30.0183 25.3087L30.8064 24.5205C31.0314 24.2955 31.3693 24.2955 31.5946 24.5205C31.8196 24.7458 31.8196 25.0837 31.5946 25.3087L30.8064 26.0968C30.6936 26.2096 30.553 26.2658 30.4124 26.2658C30.2714 26.2658 30.1308 26.2096 30.0183 26.0968C29.793 25.8718 29.793 25.5058 30.0183 25.3087ZM29.568 28.5174C29.8774 28.5174 30.1308 28.7708 30.1308 29.0805C30.1308 29.3902 29.8774 29.6433 29.568 29.6433H27.288L27.4568 29.4746C27.6821 29.2493 27.6821 28.9115 27.4568 28.6865L26.4718 27.7012V26.4908C26.4718 26.1815 26.7252 25.928 27.0346 25.928C27.3443 25.928 27.5977 26.1815 27.5977 26.4908V28.5174H29.568ZM26.4718 23.1696C26.4718 22.8599 26.7252 22.6068 27.0346 22.6068C27.3443 22.6068 27.5977 22.8599 27.5977 23.1696V24.2955C27.5977 24.6052 27.3443 24.8583 27.0346 24.8583C26.7252 24.8583 26.4718 24.6052 26.4718 24.2955V23.1696ZM26.4718 33.8655C26.4718 33.5558 26.7252 33.3024 27.0346 33.3024C27.3443 33.3024 27.5977 33.5558 27.5977 33.8655V34.9915C27.5977 35.3008 27.3443 35.5543 27.0346 35.5543C26.7252 35.5543 26.4718 35.3008 26.4718 34.9915V33.8655ZM21.3489 24.0702L21.8555 24.5771L26.2464 29.0805L21.2927 34.0343C20.1386 32.7115 19.4349 30.9665 19.4349 29.0805C19.4349 27.1665 20.1668 25.3933 21.3489 24.0702Z" fill="white"/>
</g>
<defs>
<filter id="filter0_b_3705_2391" x="-10.8" y="-10.8" width="69.6" height="69.6" filterUnits="userSpaceOnUse" color-interpolation-filters="sRGB">
<feFlood flood-opacity="0" result="BackgroundImageFix"/>
<feGaussianBlur in="BackgroundImageFix" stdDeviation="5.4"/>
<feComposite in2="SourceAlpha" operator="in" result="effect1_backgroundBlur_3705_2391"/>
<feBlend mode="normal" in="SourceGraphic" in2="effect1_backgroundBlur_3705_2391" result="shape"/>
</filter>
</defs>
</svg>
