<svg width="48" height="48" viewBox="0 0 48 48" fill="none" xmlns="http://www.w3.org/2000/svg">
<g filter="url(#filter0_b_3705_2399)">
<rect width="48" height="48" rx="4" fill="white" fill-opacity="0.06"/>
</g>
<mask id="mask0_3705_2399" style="mask-type:luminance" maskUnits="userSpaceOnUse" x="10" y="6" width="28" height="36">
<path d="M10 6H37.4395V42H10V6Z" fill="white"/>
</mask>
<g mask="url(#mask0_3705_2399)">
<path fill-rule="evenodd" clip-rule="evenodd" d="M21.5389 9.68264C21.8554 9.68264 22.1124 9.42591 22.1124 9.10913V6.58666C22.1124 6.27066 21.8554 6.01367 21.5389 6.01367C21.2216 6.01367 20.9659 6.27066 20.9659 6.58666V9.10913C20.9659 9.42591 21.2218 9.68264 21.5389 9.68264ZM28.8401 11.6395C29.1081 11.7944 29.4621 11.7074 29.6226 11.4291L30.8837 9.24444C31.0418 8.96988 30.948 8.61979 30.6739 8.46114C30.3999 8.30275 30.0493 8.39689 29.8906 8.67093L28.6295 10.8556C28.4711 11.1302 28.5653 11.4803 28.8401 11.6395ZM37.3618 15.149C37.2031 14.8747 36.8525 14.7805 36.579 14.9397L34.3943 16.2006C34.1197 16.3587 34.0258 16.7088 34.184 16.9833C34.3447 17.2616 34.6982 17.3486 34.9673 17.1937L37.152 15.932C37.4265 15.7736 37.5196 15.4235 37.3618 15.149ZM33.3771 33.7917C33.1531 33.5678 32.7907 33.5678 32.5668 33.7917L28.4048 37.9532L26.9593 36.1453C26.7619 35.8991 26.401 35.8587 26.1537 36.0567C25.9064 36.2544 25.8666 36.615 26.0646 36.8617L27.9099 39.1689C28.1237 39.4356 28.521 39.4579 28.7625 39.2156L33.3771 34.6013C33.6008 34.3773 33.6008 34.0154 33.3771 33.7917ZM35.5125 36.541C35.5125 39.5326 33.0781 41.9657 30.0857 41.9657C27.0952 41.9657 24.6613 39.5329 24.6613 36.541C24.6613 33.5494 27.0952 31.1151 30.0857 31.1151C33.0781 31.1151 35.5125 33.5494 35.5125 36.541ZM19.0953 37.0112V39.471C19.0953 39.6721 19.265 39.8397 19.4651 39.8397H24.407C23.915 38.9985 23.6064 38.0374 23.534 37.0112H19.0953ZM24.2528 33.5195H17.2568C17.2211 33.5195 17.1904 33.5494 17.1904 33.5848V35.7999C17.1904 35.8348 17.2211 35.8652 17.2568 35.8652H23.5492C23.6357 35.0274 23.8814 34.2349 24.2528 33.5195ZM18.8714 32.3725H21.9173V29.5608C21.9173 29.2451 22.1732 28.9881 22.4903 28.9881H23.9189C24.3907 28.9881 24.7744 28.6041 24.7744 28.1324C24.7744 27.6609 24.3907 27.2772 23.9189 27.2772H22.4903C22.1732 27.2772 21.9173 27.0202 21.9173 26.7032V24.1225H19.9788V24.9777C19.9788 26.0812 19.0807 26.9793 17.9766 26.9793C16.8726 26.9793 15.9744 26.0812 15.9744 24.9777V24.1225H14.0643C14.2584 26.4433 15.3967 28.5753 17.2424 30.0383C18.0293 30.6622 18.5855 31.4625 18.8714 32.3725ZM23.9189 30.1346H23.0638V32.3725H25.0098C25.5624 31.7006 26.2473 31.1395 27.022 30.7301C27.2344 30.4807 27.4741 30.2486 27.739 30.0386C29.5846 28.5753 30.7222 26.4433 30.9168 24.1225H28.5036C28.1874 24.1225 27.9301 23.8655 27.9301 23.5485V22.1208C27.9301 21.6491 27.5465 21.2652 27.0747 21.2652C26.6027 21.2652 26.2196 21.6491 26.2196 22.1208V23.5485C26.2196 23.8655 25.9626 24.1225 25.6466 24.1225H23.0638V26.1307H23.9189C25.0224 26.1307 25.9209 27.0286 25.9209 28.1326C25.9209 29.2364 25.0224 30.1346 23.9189 30.1346ZM21.0621 19.8205C20.5893 19.8205 20.2054 19.4371 20.2054 18.9653C20.2054 18.4938 20.5893 18.1102 21.0621 18.1102H22.4903C22.8068 18.1102 23.0638 17.8537 23.0638 17.5361V14.9741C27.316 15.2604 30.7169 18.7055 30.9338 22.976H29.0766V22.1208C29.0766 21.0158 28.1787 20.1184 27.0747 20.1184C25.9712 20.1184 25.073 21.0158 25.073 22.1208V22.976H23.0638V20.3937C23.0638 20.0775 22.8068 19.8205 22.4903 19.8205H21.0621ZM13.9277 21.4196C13.4559 21.4196 13.0725 21.036 13.0725 20.5642V19.1355C13.0725 18.8185 12.8155 18.5625 12.4993 18.5625H9.99805C10.2154 14.2912 13.6164 10.8465 17.8686 10.5609V12.5502H17.0129C15.9094 12.5502 15.0112 13.4481 15.0112 14.5521C15.0112 15.6556 15.9094 16.5527 17.0129 16.5527H17.8686V18.5625H15.3569C15.0396 18.5625 14.7828 18.8185 14.7828 19.1355V20.5645C14.7828 21.036 14.3994 21.4196 13.9277 21.4196Z" fill="white"/>
</g>
<defs>
<filter id="filter0_b_3705_2399" x="-10.8" y="-10.8" width="69.6" height="69.6" filterUnits="userSpaceOnUse" color-interpolation-filters="sRGB">
<feFlood flood-opacity="0" result="BackgroundImageFix"/>
<feGaussianBlur in="BackgroundImageFix" stdDeviation="5.4"/>
<feComposite in2="SourceAlpha" operator="in" result="effect1_backgroundBlur_3705_2399"/>
<feBlend mode="normal" in="SourceGraphic" in2="effect1_backgroundBlur_3705_2399" result="shape"/>
</filter>
</defs>
</svg>
