<svg width="48" height="48" viewBox="0 0 48 48" fill="none" xmlns="http://www.w3.org/2000/svg">
<g filter="url(#filter0_b_3705_2389)">
<rect width="48" height="48" rx="4" fill="white" fill-opacity="0.06"/>
</g>
<path d="M29.2138 9.03467C24.3142 9.03467 20.309 13.0203 20.2853 17.919C20.2784 19.2719 20.5672 20.5716 21.1417 21.7844C21.1797 21.8364 21.2088 21.8951 21.2272 21.9577C21.7488 23.0002 22.4607 23.919 23.3433 24.6899C25.0324 26.1653 26.0597 28.2432 26.2167 30.4628H28.6186V23.8558C27.2615 23.5789 26.2377 22.3768 26.2377 20.9393C26.2377 19.298 27.5725 17.9629 29.2138 17.9629C30.8551 17.9629 32.1899 19.2977 32.1899 20.9393C32.1899 22.3768 31.1661 23.5789 29.8091 23.8558V30.4628H32.2116C32.3692 28.2494 33.4018 26.1659 35.0998 24.6757C37.0337 22.9792 38.1424 20.5328 38.1424 17.9629C38.1424 13.0396 34.1372 9.03467 29.2138 9.03467Z" fill="white"/>
<path d="M26.2383 31.6538H32.1905V32.8441H26.2383V31.6538Z" fill="white"/>
<path d="M26.2379 34.6297V34.0345H25.6426C25.3139 34.0345 25.0474 33.768 25.0474 33.4392V31.0584C25.0474 28.9616 24.1411 26.9668 22.56 25.5866C21.6271 24.7712 20.862 23.8097 20.2846 22.7251H6V39.3917H8.38081C8.70961 39.3917 8.97609 39.6578 8.97609 39.9869V42.0001L14.0668 39.454C14.1493 39.4133 14.241 39.3917 14.3333 39.3917H28.6187V37.5465C27.2617 37.2696 26.2379 36.0672 26.2379 34.6297ZM20.2855 37.0106H8.38081C8.05201 37.0106 7.78553 36.7444 7.78553 36.4153C7.78553 36.0865 8.05201 35.8203 8.38081 35.8203H20.2855C20.6143 35.8203 20.8807 36.0865 20.8807 36.4153C20.8807 36.7444 20.6143 37.0106 20.2855 37.0106ZM20.2855 33.4392H8.38081C8.05201 33.4392 7.78553 33.1727 7.78553 32.8439C7.78553 32.5151 8.05201 32.2486 8.38081 32.2486H20.2855C20.6143 32.2486 20.8807 32.5151 20.8807 32.8439C20.8807 33.173 20.6143 33.4392 20.2855 33.4392ZM20.2855 29.8678H8.38081C8.05201 29.8678 7.78553 29.6013 7.78553 29.2725C7.78553 28.9438 8.05201 28.6773 8.38081 28.6773H20.2855C20.6143 28.6773 20.8807 28.9438 20.8807 29.2725C20.8807 29.6013 20.6143 29.8678 20.2855 29.8678ZM20.2855 26.2965H8.38081C8.05201 26.2965 7.78553 26.03 7.78553 25.7012C7.78553 25.3724 8.05201 25.1059 8.38081 25.1059H20.2855C20.6143 25.1059 20.8807 25.3724 20.8807 25.7012C20.8807 26.0303 20.6143 26.2965 20.2855 26.2965Z" fill="white"/>
<path d="M27.4287 34.6295C27.4287 35.6138 28.2302 36.415 29.2145 36.415C30.1989 36.415 31.0001 35.6138 31.0001 34.6295V34.0342H27.4287V34.6295Z" fill="white"/>
<path d="M29.8977 19.2892C29.9517 19.3115 30.0045 19.3367 30.0561 19.364C30.1078 19.3916 30.1579 19.4219 30.2063 19.4542C30.2549 19.4869 30.3018 19.5216 30.3472 19.5587C30.3923 19.5958 30.4357 19.6349 30.4769 19.6762C30.5185 19.7177 30.5576 19.7611 30.5947 19.8062C30.6318 19.8513 30.6665 19.8982 30.6992 19.9468C30.7315 19.9955 30.7615 20.0456 30.7891 20.0973C30.8167 20.1489 30.8416 20.2017 30.8642 20.2557C30.8864 20.3097 30.906 20.3646 30.9232 20.4207C30.9401 20.4765 30.9544 20.5332 30.9657 20.5905C30.9772 20.648 30.9858 20.7056 30.9915 20.7641C30.9971 20.8222 31.0001 20.8804 31.0001 20.9389C31.0001 20.9976 30.9971 21.0558 30.9915 21.1139C30.9858 21.1721 30.9772 21.23 30.9657 21.2872C30.9544 21.3448 30.9401 21.4015 30.9232 21.4573C30.906 21.5134 30.8864 21.5683 30.8642 21.6223C30.8416 21.6763 30.8167 21.7291 30.7891 21.7807C30.7615 21.8324 30.7315 21.8825 30.6992 21.9312C30.6665 21.9798 30.6318 22.0267 30.5947 22.0718C30.5576 22.1169 30.5185 22.1603 30.4769 22.2018C30.4357 22.2431 30.3923 22.2822 30.3472 22.3193C30.3018 22.3564 30.2549 22.3911 30.2063 22.4238C30.1579 22.4561 30.1078 22.4864 30.0561 22.5137C30.0045 22.5413 29.9517 22.5665 29.8977 22.5888C29.8436 22.611 29.7887 22.6309 29.7327 22.6478C29.6766 22.6647 29.6202 22.679 29.5626 22.6903C29.5054 22.7018 29.4475 22.7104 29.3893 22.7161C29.3312 22.7217 29.2727 22.7247 29.2142 22.7247C29.1558 22.7247 29.0976 22.7217 29.0392 22.7161C28.981 22.7104 28.9234 22.7018 28.8659 22.6903C28.8086 22.679 28.7519 22.6647 28.6958 22.6478C28.64 22.6309 28.5848 22.611 28.5308 22.5888C28.4768 22.5665 28.424 22.5413 28.3727 22.5137C28.321 22.4864 28.2709 22.4561 28.2222 22.4238C28.1735 22.3911 28.1267 22.3564 28.0816 22.3193C28.0362 22.2822 27.9931 22.2431 27.9516 22.2018C27.9103 22.1603 27.8712 22.1169 27.8341 22.0718C27.797 22.0267 27.762 21.9795 27.7296 21.9312C27.697 21.8825 27.667 21.8324 27.6394 21.7807C27.6118 21.7291 27.5869 21.6763 27.5646 21.6223C27.5421 21.5683 27.5225 21.5134 27.5056 21.4573C27.4887 21.4015 27.4744 21.3448 27.4628 21.2872C27.4516 21.23 27.443 21.1721 27.4373 21.1139C27.4314 21.0558 27.4287 20.9976 27.4287 20.9389C27.4287 20.8804 27.4314 20.8222 27.4373 20.7641C27.443 20.7056 27.4516 20.648 27.4628 20.5905C27.4744 20.5332 27.4887 20.4765 27.5056 20.4207C27.5225 20.3646 27.5421 20.3097 27.5646 20.2557C27.5869 20.2017 27.6118 20.1489 27.6394 20.0973C27.667 20.0456 27.697 19.9955 27.7296 19.9468C27.762 19.8982 27.797 19.8513 27.8341 19.8062C27.8712 19.7611 27.9103 19.7177 27.9516 19.6762C27.9931 19.6349 28.0362 19.5958 28.0816 19.5587C28.1267 19.5216 28.1735 19.4869 28.2222 19.4542C28.2709 19.4219 28.321 19.3916 28.3727 19.364C28.424 19.3364 28.4768 19.3115 28.5308 19.2892C28.5848 19.267 28.64 19.2471 28.6958 19.2302C28.7519 19.2133 28.8086 19.199 28.8659 19.1877C28.9234 19.1762 28.981 19.1676 29.0392 19.1619C29.0976 19.1563 29.1558 19.1533 29.2142 19.1533C29.2727 19.1533 29.3312 19.1563 29.3893 19.1619C29.4475 19.1676 29.5054 19.1762 29.5626 19.1874C29.6202 19.199 29.6766 19.2133 29.7327 19.2302C29.7887 19.2471 29.8436 19.267 29.8977 19.2892Z" fill="white"/>
<path d="M17.1422 10.0852L18.982 11.1075C19.0734 11.158 19.1726 11.1826 19.2699 11.1826C19.4797 11.1826 19.6821 11.0716 19.7916 10.8761C19.9509 10.5888 19.8474 10.2265 19.5601 10.0674L17.7203 9.04513C17.433 8.88488 17.0707 8.98845 16.9107 9.27629C16.7514 9.56354 16.855 9.92617 17.1422 10.0852Z" fill="white"/>
<mask id="mask0_3705_2389" style="mask-type:luminance" maskUnits="userSpaceOnUse" x="20" y="6" width="4" height="3">
<path d="M20.5771 6H23.312V8.80516H20.5771V6Z" fill="white"/>
</mask>
<g mask="url(#mask0_3705_2389)">
<path d="M22.2443 8.563C22.3612 8.67903 22.5131 8.73719 22.6654 8.73719C22.8179 8.73719 22.9698 8.67903 23.0864 8.563C23.3188 8.33005 23.3188 7.95348 23.0864 7.72083L21.5985 6.23264C21.3656 6.00058 20.989 6.00058 20.7561 6.23264C20.524 6.46558 20.524 6.84186 20.7561 7.07481L22.2443 8.563Z" fill="white"/>
</g>
<path d="M16.1187 15.5822H18.2022C18.531 15.5822 18.7975 15.3157 18.7975 14.9869C18.7975 14.6581 18.531 14.3916 18.2022 14.3916H16.1187C15.7899 14.3916 15.5234 14.6581 15.5234 14.9869C15.5234 15.3157 15.7899 15.5822 16.1187 15.5822Z" fill="white"/>
<path d="M41.517 9.27616C41.3571 8.98831 40.9948 8.88505 40.7075 9.04499L38.8677 10.0673C38.5804 10.2263 38.4771 10.5887 38.6362 10.8759C38.7457 11.0724 38.9481 11.1825 39.157 11.1825C39.2552 11.1825 39.3543 11.1578 39.4457 11.1074L41.2859 10.0851C41.5731 9.92604 41.6764 9.56341 41.517 9.27616Z" fill="white"/>
<mask id="mask1_3705_2389" style="mask-type:luminance" maskUnits="userSpaceOnUse" x="35" y="6" width="3" height="3">
<path d="M35.1621 6H37.8969V8.80516H35.1621V6Z" fill="white"/>
</mask>
<g mask="url(#mask1_3705_2389)">
<path d="M35.7611 8.73719C35.9137 8.73719 36.0656 8.67903 36.1822 8.563L37.6704 7.07481C37.9025 6.84186 37.9025 6.46558 37.6704 6.23264C37.4375 6.00058 37.0609 6.00058 36.828 6.23264L35.3401 7.72083C35.108 7.95348 35.108 8.33005 35.3401 8.563C35.457 8.67903 35.6086 8.73719 35.7611 8.73719Z" fill="white"/>
</g>
<path d="M42.3093 14.3916H40.2261C39.8973 14.3916 39.6309 14.6581 39.6309 14.9869C39.6309 15.3157 39.8973 15.5822 40.2261 15.5822H42.3093C42.6381 15.5822 42.9046 15.3157 42.9046 14.9869C42.9046 14.6581 42.6381 14.3916 42.3093 14.3916Z" fill="white"/>
<defs>
<filter id="filter0_b_3705_2389" x="-10.8" y="-10.8" width="69.6" height="69.6" filterUnits="userSpaceOnUse" color-interpolation-filters="sRGB">
<feFlood flood-opacity="0" result="BackgroundImageFix"/>
<feGaussianBlur in="BackgroundImageFix" stdDeviation="5.4"/>
<feComposite in2="SourceAlpha" operator="in" result="effect1_backgroundBlur_3705_2389"/>
<feBlend mode="normal" in="SourceGraphic" in2="effect1_backgroundBlur_3705_2389" result="shape"/>
</filter>
</defs>
</svg>
