<svg width="48" height="48" viewBox="0 0 48 48" fill="none" xmlns="http://www.w3.org/2000/svg">
<g filter="url(#filter0_b_3705_2387)">
<rect width="48" height="48" rx="4" fill="white" fill-opacity="0.06"/>
</g>
<mask id="mask0_3705_2387" style="mask-type:luminance" maskUnits="userSpaceOnUse" x="32" y="23" width="10" height="10">
<path d="M32.9775 23.6743H41.9998V32.8052H32.9775V23.6743Z" fill="white"/>
</mask>
<g mask="url(#mask0_3705_2387)">
<path d="M37.5251 23.7275C35.0421 23.7275 33.0215 25.7482 33.0215 28.2311C33.0215 30.7141 35.0421 32.7347 37.5251 32.7347C40.0081 32.7347 42.0287 30.7141 42.0287 28.2311C42.0287 25.7482 40.0081 23.7275 37.5251 23.7275Z" fill="white"/>
</g>
<mask id="mask1_3705_2387" style="mask-type:luminance" maskUnits="userSpaceOnUse" x="15" y="7" width="18" height="26">
<path d="M15.8887 7H32.14V32.8887H15.8887V7Z" fill="white"/>
</mask>
<g mask="url(#mask1_3705_2387)">
<path d="M25.3012 17.9372V12.7929C25.3012 12.4359 25.5904 12.1492 25.9448 12.1492H27.508C27.7014 12.1492 27.7943 12.016 27.8319 11.9382C27.8571 11.8829 27.9327 11.6921 27.7894 11.5134L24.291 7.14071C24.1932 7.01767 24.0751 7 24.0145 7C23.9543 7 23.8362 7.01767 23.7406 7.13809L20.24 11.5134C20.0967 11.6921 20.1719 11.8829 20.1971 11.9382C20.2348 12.016 20.3277 12.1492 20.5214 12.1492H22.0846C22.4389 12.1492 22.7279 12.4359 22.7279 12.7929V17.9372C22.7279 24.2477 18.2796 25.8033 15.9121 26.1829C16.1559 26.8187 16.2943 27.5098 16.2943 28.231C16.2943 28.3691 16.2815 28.5023 16.274 28.6381C17.742 28.3465 19.8604 27.6882 21.6723 26.1728C21.8634 26.0144 22.1297 25.9817 22.3558 26.0848C22.5846 26.1904 22.7279 26.4166 22.7279 26.6679V32.8829C23.1425 32.7899 23.5724 32.7346 24.0145 32.7346C24.4569 32.7346 24.8866 32.7899 25.3012 32.8829V26.6679C25.3012 26.4166 25.4445 26.1904 25.6732 26.0848C25.8993 25.9817 26.1657 26.0144 26.3568 26.1728C28.169 27.6882 30.2874 28.3465 31.755 28.6381C31.7475 28.5023 31.7351 28.3691 31.7351 28.231C31.7351 27.5098 31.8732 26.8187 32.117 26.1829C29.7495 25.8033 25.3012 24.2477 25.3012 17.9372Z" fill="white"/>
</g>
<mask id="mask2_3705_2387" style="mask-type:luminance" maskUnits="userSpaceOnUse" x="19" y="33" width="10" height="11">
<path d="M19.4902 33.978H28.5374V43.0003H19.4902V33.978Z" fill="white"/>
</mask>
<g mask="url(#mask2_3705_2387)">
<path d="M19.5098 38.5246C19.5098 41.0076 21.5304 43.0282 24.0134 43.0282C26.4963 43.0282 28.517 41.0076 28.517 38.5246C28.517 36.0416 26.4963 34.021 24.0134 34.021C21.5304 34.021 19.5098 36.0416 19.5098 38.5246Z" fill="white"/>
</g>
<mask id="mask3_3705_2387" style="mask-type:luminance" maskUnits="userSpaceOnUse" x="6" y="23" width="10" height="10">
<path d="M6 23.6743H15.051V32.8052H6V23.6743Z" fill="white"/>
</mask>
<g mask="url(#mask3_3705_2387)">
<path d="M10.5036 32.7347C12.9866 32.7347 15.0069 30.7141 15.0069 28.2311C15.0069 25.7482 12.9866 23.7275 10.5036 23.7275C8.02062 23.7275 6 25.7482 6 28.2311C6 30.7141 8.02062 32.7347 10.5036 32.7347Z" fill="white"/>
</g>
<defs>
<filter id="filter0_b_3705_2387" x="-10.8" y="-10.8" width="69.6" height="69.6" filterUnits="userSpaceOnUse" color-interpolation-filters="sRGB">
<feFlood flood-opacity="0" result="BackgroundImageFix"/>
<feGaussianBlur in="BackgroundImageFix" stdDeviation="5.4"/>
<feComposite in2="SourceAlpha" operator="in" result="effect1_backgroundBlur_3705_2387"/>
<feBlend mode="normal" in="SourceGraphic" in2="effect1_backgroundBlur_3705_2387" result="shape"/>
</filter>
</defs>
</svg>
